<svg width="340" height="451" viewBox="0 0 340 451" fill="none" xmlns="http://www.w3.org/2000/svg">
<g clip-path="url(#clip0)">
<path d="M196.982 0.68457H0.120117V116.627H196.982V0.68457Z" fill="#3A445D"/>
<path d="M196.862 0.524414H0V12.5075H196.862V0.524414Z" fill="#2EC4B6"/>
<path d="M192.247 16.1885H4.53955V110.858H192.247V16.1885Z" fill="white"/>
<path d="M18.6551 8.46741C19.7499 8.46741 20.6373 7.57993 20.6373 6.48517C20.6373 5.39041 19.7499 4.50293 18.6551 4.50293C17.5603 4.50293 16.6729 5.39041 16.6729 6.48517C16.6729 7.57993 17.5603 8.46741 18.6551 8.46741Z" fill="white"/>
<path d="M26.179 8.46741C27.2738 8.46741 28.1613 7.57993 28.1613 6.48517C28.1613 5.39041 27.2738 4.50293 26.179 4.50293C25.0843 4.50293 24.1968 5.39041 24.1968 6.48517C24.1968 7.57993 25.0843 8.46741 26.179 8.46741Z" fill="white"/>
<path d="M11.1111 8.46741C12.2059 8.46741 13.0934 7.57993 13.0934 6.48517C13.0934 5.39041 12.2059 4.50293 11.1111 4.50293C10.0164 4.50293 9.12891 5.39041 9.12891 6.48517C9.12891 7.57993 10.0164 8.46741 11.1111 8.46741Z" fill="white"/>
<path d="M170.355 32.5361H26.4321V36.2952H170.355V32.5361Z" fill="#3A445D"/>
<path d="M124.051 41.9336H72.7358V45.6927H124.051V41.9336Z" fill="#3A445D"/>
<path d="M124.051 60.9961H72.7358V64.7552H124.051V60.9961Z" fill="#3A445D"/>
<path d="M124.051 70.7598H72.7358V74.5188H124.051V70.7598Z" fill="#3A445D"/>
<path d="M149.508 51.3311H47.2788V55.0901H149.508V51.3311Z" fill="#3A445D"/>
<path d="M170.355 87.834H143.355V94.5094H170.355V87.834Z" fill="#2EC4B6"/>
<path d="M196.48 196.314L191.945 196.314L189.788 178.824L196.481 178.825L196.48 196.314Z" fill="#9F616A"/>
<path d="M188.707 195.019H197.452V200.525H183.201C183.201 199.064 183.781 197.664 184.813 196.631C185.846 195.599 187.246 195.019 188.707 195.019Z" fill="#2F2E41"/>
<path d="M213.493 196.314L208.959 196.314L206.802 178.824L213.494 178.825L213.493 196.314Z" fill="#9F616A"/>
<path d="M205.72 195.019H214.465V200.525H200.214C200.214 199.802 200.356 199.086 200.633 198.418C200.91 197.749 201.315 197.143 201.827 196.631C202.338 196.12 202.945 195.714 203.613 195.438C204.281 195.161 204.997 195.019 205.72 195.019Z" fill="#2F2E41"/>
<path d="M212.94 144.224C212.451 143.91 212.038 143.492 211.728 143.001C211.418 142.51 211.22 141.956 211.147 141.38C211.075 140.804 211.129 140.219 211.307 139.666C211.485 139.113 211.782 138.605 212.177 138.18L209.191 95.8096L217.792 96.6436L218.028 138.137C218.699 138.848 219.086 139.781 219.116 140.758C219.145 141.736 218.815 142.69 218.188 143.441C217.561 144.191 216.68 144.685 215.713 144.83C214.746 144.974 213.759 144.759 212.94 144.224L212.94 144.224Z" fill="#9F616A"/>
<path d="M196.266 187.503L191.274 187.265C190.849 187.245 190.447 187.062 190.153 186.755C189.858 186.448 189.692 186.04 189.689 185.614L189.34 135.108C189.339 134.868 189.389 134.631 189.487 134.412C189.586 134.194 189.731 133.999 189.911 133.841C190.092 133.684 190.305 133.567 190.535 133.499C190.765 133.432 191.007 133.414 191.244 133.449L211.214 136.348C211.608 136.403 211.97 136.599 212.232 136.899C212.493 137.199 212.638 137.584 212.639 137.982L215.207 184.782C215.209 185.002 215.167 185.219 215.084 185.423C215.001 185.626 214.879 185.811 214.724 185.967C214.57 186.123 214.386 186.247 214.183 186.331C213.98 186.416 213.763 186.459 213.543 186.459H208.162C207.765 186.461 207.38 186.32 207.078 186.062C206.777 185.804 206.578 185.446 206.518 185.053C206.518 185.053 202.453 149.949 201.895 149.97C201.333 149.98 197.997 186.038 197.997 186.038C197.948 186.442 197.753 186.814 197.448 187.084C197.144 187.354 196.752 187.504 196.345 187.505C196.318 187.505 196.292 187.504 196.266 187.503Z" fill="#2F2E41"/>
<path d="M211.138 110.046C210.937 109.901 210.77 109.713 210.651 109.495C210.532 109.277 210.464 109.036 210.451 108.788L209.82 97.3684C209.758 96.237 210.117 95.1226 210.827 94.24C211.538 93.3574 212.55 92.7692 213.669 92.5888C214.788 92.4084 215.934 92.6485 216.886 93.2629C217.838 93.8773 218.529 94.8224 218.825 95.916L221.593 106.126C221.708 106.552 221.65 107.006 221.43 107.389C221.211 107.772 220.848 108.052 220.423 108.168L212.548 110.303C212.309 110.368 212.058 110.379 211.814 110.335C211.57 110.29 211.339 110.191 211.138 110.046Z" fill="#3F3D56"/>
<path d="M203.782 82.9055C208.799 82.9055 212.866 78.8384 212.866 73.8214C212.866 68.8044 208.799 64.7373 203.782 64.7373C198.765 64.7373 194.698 68.8044 194.698 73.8214C194.698 78.8384 198.765 82.9055 203.782 82.9055Z" fill="#9F616A"/>
<path d="M170.863 91.6689C170.909 91.8685 170.938 92.0713 170.952 92.2755L186.84 101.441L190.702 99.2182L194.819 104.608L186.557 110.496L168.431 96.1965C167.692 96.47 166.887 96.5121 166.123 96.3169C165.359 96.1218 164.673 95.6988 164.156 95.1042C163.638 94.5096 163.314 93.7715 163.226 92.9881C163.139 92.2047 163.291 91.4132 163.664 90.7188C164.037 90.0243 164.613 89.4599 165.315 89.1006C166.016 88.7413 166.811 88.6041 167.592 88.7072C168.374 88.8104 169.105 89.149 169.689 89.678C170.274 90.2071 170.683 90.9015 170.863 91.6689V91.6689Z" fill="#9F616A"/>
<path d="M187.407 100.662C187.381 100.415 187.41 100.166 187.493 99.9317C187.576 99.6978 187.71 99.4855 187.886 99.3104L195.972 91.2222C196.773 90.4209 197.843 89.9447 198.974 89.8852C200.106 89.8258 201.219 90.1874 202.1 90.9003C202.981 91.6133 203.566 92.627 203.744 93.7461C203.921 94.8653 203.678 96.0105 203.061 96.961L197.303 105.835C197.062 106.205 196.685 106.464 196.253 106.556C195.821 106.648 195.371 106.565 195.001 106.325L188.157 101.883C187.948 101.749 187.773 101.569 187.643 101.358C187.514 101.146 187.433 100.908 187.407 100.662Z" fill="#3F3D56"/>
<path d="M210.211 81.0078C208.516 82.813 205.369 81.844 205.148 79.3778C205.131 79.1864 205.132 78.9937 205.152 78.8024C205.266 77.71 205.897 76.7183 205.746 75.5649C205.711 75.2778 205.605 75.0042 205.435 74.7701C204.085 72.9617 200.914 75.5789 199.64 73.9418C198.858 72.9381 199.777 71.3576 199.177 70.2357C198.386 68.7549 196.041 69.4854 194.571 68.6745C192.935 67.7722 193.033 65.2624 194.11 63.7359C195.423 61.8742 197.726 60.8807 199.999 60.7376C202.273 60.5944 204.531 61.209 206.654 62.0363C209.066 62.9762 211.458 64.2752 212.942 66.396C214.747 68.9751 214.921 72.4424 214.018 75.4582C213.469 77.2927 211.595 79.5337 210.211 81.0078Z" fill="#2F2E41"/>
<path d="M232.253 200.456H160.87C160.772 200.456 160.678 200.417 160.609 200.347C160.539 200.278 160.5 200.184 160.5 200.086C160.5 199.988 160.539 199.894 160.609 199.824C160.678 199.755 160.772 199.716 160.87 199.716H232.253C232.351 199.716 232.445 199.755 232.514 199.824C232.584 199.894 232.623 199.988 232.623 200.086C232.623 200.184 232.584 200.278 232.514 200.347C232.445 200.417 232.351 200.456 232.253 200.456Z" fill="#3F3D56"/>
<path d="M212.849 88.9734C212.692 88.86 212.531 88.7486 212.367 88.6393C211.495 88.0592 210.55 87.5962 209.557 87.2619V84.875H202.53V87.0896C200.201 87.7322 198.111 89.0455 196.522 90.8662C194.933 92.6868 193.915 94.9345 193.593 97.3295L188.808 132.855C188.777 133.077 188.792 133.303 188.851 133.519C188.91 133.735 189.013 133.937 189.152 134.113C189.289 134.287 189.459 134.432 189.654 134.538C189.848 134.644 190.061 134.71 190.282 134.731C191.94 134.897 195.379 135.539 199.78 137.985C201.896 139.157 204.279 139.765 206.698 139.75C208.619 139.743 210.524 139.404 212.329 138.748C212.636 138.635 212.901 138.434 213.093 138.171C213.285 137.907 213.395 137.592 213.409 137.267C213.581 133.443 214.589 113.764 217.523 101.761C218.093 99.4059 217.954 96.935 217.122 94.6594C216.291 92.3838 214.804 90.4054 212.849 88.9734Z" fill="#3F3D56"/>
</g>
<g clip-path="url(#clip1)">
<path d="M93.9615 447.244C106.643 447.244 116.923 446.46 116.923 445.493C116.923 444.525 106.643 443.741 93.9615 443.741C81.2802 443.741 71 444.525 71 445.493C71 446.46 81.2802 447.244 93.9615 447.244Z" fill="#3A445D"/>
<path d="M143.493 450.524C156.174 450.524 166.454 449.74 166.454 448.773C166.454 447.806 156.174 447.021 143.493 447.021C130.811 447.021 120.531 447.806 120.531 448.773C120.531 449.74 130.811 450.524 143.493 450.524Z" fill="#3A445D"/>
<path d="M318.09 250.524H202.224C201.549 250.525 200.901 250.794 200.423 251.272C199.945 251.749 199.677 252.397 199.676 253.073V447.088C199.676 447.764 199.945 448.412 200.422 448.89C200.9 449.368 201.548 449.636 202.224 449.637H318.09C318.697 449.637 319.284 449.421 319.745 449.026C320.206 448.632 320.511 448.085 320.604 447.486C320.628 447.355 320.639 447.222 320.638 447.088V253.073C320.637 252.397 320.369 251.749 319.891 251.272C319.413 250.794 318.765 250.525 318.09 250.524ZM319.619 447.088C319.619 447.494 319.458 447.883 319.171 448.169C318.884 448.456 318.495 448.617 318.09 448.617H202.224C201.819 448.617 201.43 448.456 201.143 448.169C200.856 447.883 200.695 447.494 200.695 447.088V253.073C200.696 252.667 200.857 252.279 201.144 251.992C201.43 251.706 201.819 251.544 202.224 251.544H318.09C318.495 251.544 318.884 251.706 319.17 251.992C319.457 252.279 319.618 252.667 319.619 253.073V447.088Z" fill="#3A445D"/>
<path d="M211.398 264.836C211.128 264.836 210.869 264.944 210.678 265.135C210.487 265.326 210.379 265.585 210.379 265.855V307.988C210.379 308.259 210.487 308.518 210.678 308.709C210.869 308.9 211.128 309.007 211.398 309.008H308.916C309.186 309.007 309.445 308.9 309.636 308.709C309.827 308.518 309.935 308.259 309.935 307.988V265.855C309.935 265.585 309.827 265.326 309.636 265.135C309.445 264.944 309.186 264.836 308.916 264.836L211.398 264.836Z" fill="#3A445D"/>
<path d="M170.666 297.802C170.405 297.802 170.155 297.906 169.971 298.09C169.786 298.275 169.682 298.525 169.682 298.786V339.46C169.682 339.721 169.786 339.972 169.971 340.156C170.155 340.34 170.405 340.444 170.666 340.445H264.808C265.069 340.444 265.319 340.34 265.504 340.156C265.688 339.972 265.792 339.721 265.792 339.46V298.786C265.792 298.525 265.688 298.275 265.504 298.09C265.319 297.906 265.069 297.802 264.808 297.802H170.666Z" fill="#2EC4B6"/>
<path d="M122.748 392.278C122.872 395.325 120.926 398.025 119.104 400.452C118.273 401.589 110.551 409.293 108.219 412.66C107.654 413.476 93.7886 429.481 93.078 430.964C92.9109 431.315 92.7731 431.679 92.6662 432.053C92.2508 433.475 92.2326 435.005 92.269 436.521V437.581C92.3419 439.895 92.4476 442.22 92.9978 444.461C93.078 444.789 93.1691 445.121 93.2165 445.453C93.0693 445.356 92.9303 445.248 92.8011 445.128L85.2651 439.535L84.795 439.185C84.314 437.793 83.8585 436.386 83.3447 435.012C83.0386 434.196 83.3666 433.263 83.9059 432.582C84.4902 431.937 85.1344 431.349 85.8299 430.825C86.3639 430.273 86.8401 429.667 87.2511 429.018C92.4512 421.449 107.097 394.29 108.164 388.824C109.572 388.562 111.014 388.543 112.428 388.769L119.946 389.768C120.758 389.877 121.648 390.026 122.176 390.649C122.537 391.117 122.737 391.688 122.748 392.278Z" fill="#EFB7B9"/>
<path d="M154.838 398.488C154.678 399.624 154.276 400.712 153.661 401.68C152.888 402.857 144.015 425.68 141.256 435.104C140.75 436.835 141.016 438.507 140.961 439.087C140.917 439.568 140.877 440.049 140.841 440.526C140.79 441.12 140.75 441.714 140.706 442.304C140.593 443.868 140.495 445.511 141.154 446.932C141.413 447.494 141.803 447.978 141.974 448.539C141.717 448.407 141.479 448.24 141.267 448.044L133.731 442.45C133.117 440.709 132.643 438.921 132.314 437.104C132.124 436.073 132.033 434.889 132.678 434.098C132.715 434.049 132.755 434.003 132.798 433.96C133.009 433.762 133.244 433.593 133.498 433.457C133.731 433.329 133.955 433.185 134.169 433.027C134.329 432.901 134.473 432.757 134.599 432.597C135.218 431.831 135.44 430.756 135.626 429.747C136.355 425.615 142.528 400.259 142.412 399.632C142.284 399.017 138.778 393.109 136.373 391.798C138.869 389.707 141.715 388.076 144.78 386.98C145.32 386.729 145.918 386.627 146.511 386.685C146.828 386.755 147.132 386.878 147.408 387.049C149.058 387.975 150.323 389.433 151.533 390.89C153.336 393.084 155.14 395.664 154.838 398.488Z" fill="#EFB7B9"/>
<path d="M151.549 389.709C151.316 391.913 145.124 393.863 137.294 395.076C135.272 395.39 130.304 383.151 128.138 383.358C125.533 383.607 125.715 396.275 123.139 396.343C114.369 396.575 108.702 395.676 106.869 393.076C105.878 392.835 104.683 392.267 104.73 391.254C104.763 390.674 105.222 390.161 105.219 389.592C105.219 388.601 108.094 377.749 109.788 372.6C110.211 371.321 110.517 370.009 110.995 368.744C113.057 363.045 113.943 358.672 117.711 353.928C118.287 353.262 118.761 352.514 119.117 351.708C119.441 350.741 119.609 349.729 119.616 348.709L119.824 345.142C125.411 344.879 130.837 344.985 136.303 346.166C136.599 346.157 136.887 346.266 137.103 346.47C137.319 346.673 137.445 346.954 137.454 347.251L137.454 347.259C137.666 348.564 137.814 349.874 137.899 351.191C137.901 351.482 137.943 351.771 138.023 352.051C138.166 352.405 138.365 352.733 138.613 353.024C141.776 357.171 143.715 362.134 145.245 367.105C146.776 372.075 147.993 377.184 149.917 382.045C150.58 383.722 151.447 385.606 151.622 387.402C152.315 387.916 152.162 389.078 151.549 389.709Z" fill="#2F2E41"/>
<path d="M156.859 329.953C157.821 329.141 158.783 328.324 159.665 327.428C160.909 326.109 162.059 324.704 163.105 323.223C164.22 321.703 165.328 320.147 166.02 318.391C166.803 316.379 167.044 314.091 168.407 312.422C168.561 312.205 168.775 312.038 169.023 311.941C169.799 311.696 170.378 312.669 170.528 313.475C171.256 317.418 169.518 321.353 167.827 324.99C167.27 326.189 166.687 327.421 165.721 328.328C165.191 328.781 164.638 329.205 164.063 329.6C163.209 330.294 162.424 331.067 161.716 331.91C160.502 333.29 159.346 334.72 158.251 336.199C156.891 338.021 155.616 339.931 154.005 341.538C152.395 343.145 150.38 344.453 148.124 344.77C148.769 344.683 148.558 340.896 148.488 340.419C148.39 339.727 147.916 338.91 147.902 338.233C147.883 337.402 148.222 337.281 148.907 336.698L156.859 329.953Z" fill="#EFB7B9"/>
<path d="M129.812 306.106C129.812 306.106 127.626 317.039 125.075 318.861C122.524 320.683 138.923 322.869 138.923 322.869C138.923 322.869 139.287 314.123 143.66 310.115C148.033 306.106 129.812 306.106 129.812 306.106Z" fill="#EFB7B9"/>
<path d="M144.505 349.518C145.046 349.687 145.612 349.761 146.178 349.736C148.091 349.716 149.977 349.277 151.702 348.45C151.864 348.387 152.007 348.285 152.118 348.151C152.182 348.012 152.217 347.86 152.22 347.707C152.223 347.553 152.195 347.4 152.136 347.258C151.108 343.104 153.091 338.392 151.123 334.595C148.984 335.291 146.637 336.053 144.498 336.731C144.17 336.864 143.817 336.924 143.463 336.906C143.04 336.818 142.651 336.606 142.348 336.297C140.031 334.293 138.569 331.501 137.246 328.743C135.924 325.984 134.626 323.138 132.542 320.894C130.458 318.649 128.508 317.461 125.462 317.785C124.38 317.933 123.387 318.463 122.663 319.279C120.943 321.13 120.6 323.947 121.205 326.403C121.81 328.859 123.199 331.035 124.642 333.108C126.522 335.812 128.544 338.476 131.157 340.484C132.571 341.508 134.038 342.455 135.552 343.323" fill="#3A445D"/>
<path d="M138.376 314.306C144.414 314.306 149.308 309.411 149.308 303.374C149.308 297.336 144.414 292.441 138.376 292.441C132.338 292.441 127.444 297.336 127.444 303.374C127.444 309.411 132.338 314.306 138.376 314.306Z" fill="#EFB7B9"/>
<path d="M142.749 334.836C139.463 338.712 138.768 343.663 138.096 348.549C134.794 347.43 131.136 349.307 127.717 348.622C126.001 348.05 124.184 347.84 122.383 348.003C121.118 347.882 119.864 347.088 118.658 347.492C116.653 348.762 118.606 340.895 118.487 338.608C117.436 300.035 148.722 318.8 142.749 334.836Z" fill="#3A445D"/>
<path d="M161.232 331.41C162.194 330.598 163.156 329.781 164.038 328.885C165.282 327.566 166.432 326.161 167.478 324.68C168.593 323.16 169.701 321.604 170.393 319.848C171.176 317.836 171.417 315.548 172.78 313.879C172.934 313.662 173.148 313.495 173.396 313.398C174.172 313.153 174.751 314.126 174.901 314.932C175.629 318.875 173.891 322.81 172.2 326.447C171.643 327.646 171.06 328.878 170.094 329.785C169.564 330.238 169.011 330.662 168.436 331.057C167.582 331.751 166.797 332.524 166.089 333.367C164.875 334.747 163.719 336.177 162.624 337.656C161.265 339.478 159.989 341.388 158.378 342.995C156.768 344.602 154.753 345.91 152.497 346.227C153.142 346.14 152.931 342.353 152.861 341.876C152.763 341.184 152.289 340.367 152.275 339.69C152.256 338.859 152.595 338.739 153.28 338.155L161.232 331.41Z" fill="#EFB7B9"/>
<path opacity="0.1" d="M141.656 335.201L141.63 335.248C141 336.418 140.056 337.402 139.408 338.568C138.679 339.887 138.34 341.392 138.048 342.875C137.847 343.871 137.661 344.869 137.491 345.867C136.182 345.117 134.917 344.293 133.701 343.4C131.088 341.392 129.066 338.729 127.185 336.021C125.728 333.947 124.343 331.772 123.749 329.32C123.155 326.867 123.501 324.047 125.207 322.195C125.931 321.378 126.924 320.847 128.005 320.698C131.052 320.373 132.976 321.55 135.06 323.791C137.145 326.033 138.435 328.893 139.765 331.641C140.355 332.832 140.96 334.053 141.656 335.201Z" fill="black"/>
<path d="M129.834 319.243C128.753 319.391 127.76 319.921 127.035 320.737C125.315 322.588 124.973 325.405 125.578 327.861C126.183 330.317 127.571 332.493 129.014 334.567C130.894 337.27 132.917 339.934 135.53 341.942C136.943 342.966 138.41 343.913 139.924 344.781C142.441 346.331 144.859 345.848 147.165 347.696C147.671 348.154 148.25 348.523 148.878 348.789C149.419 348.959 149.985 349.033 150.551 349.008C152.464 348.987 154.349 347.819 156.075 346.993C156.237 346.93 156.38 346.827 156.49 346.694C156.555 346.554 156.59 346.403 156.593 346.249C156.596 346.096 156.567 345.943 156.509 345.801C155.481 341.647 157.463 339.85 155.496 336.053C153.357 336.749 151.01 337.511 148.871 338.189C148.543 338.322 148.189 338.382 147.836 338.364C147.412 338.276 147.024 338.064 146.721 337.755C144.403 335.751 142.942 332.959 141.619 330.201C140.296 327.442 138.999 324.596 136.914 322.352C134.83 320.107 132.88 318.919 129.834 319.243Z" fill="#3A445D"/>
<path d="M145.057 448.67C144.57 449.165 143.936 449.491 143.25 449.598C142.564 449.706 141.861 449.59 141.246 449.268C140.988 449.135 140.751 448.969 140.539 448.772L133.003 443.178L130.015 440.959C129.7 440.667 129.449 440.314 129.275 439.921C129.102 439.528 129.01 439.105 129.006 438.675C129.001 438.246 129.084 437.821 129.249 437.425C129.415 437.028 129.659 436.67 129.967 436.371L131.95 434.826L132.769 434.185L133.87 433.325L134.832 432.574L141.005 436.036L141.111 436.24L145.782 445.248C146.001 445.828 146.048 446.459 145.92 447.065C145.791 447.671 145.492 448.228 145.057 448.67Z" fill="#2F2E41"/>
<path d="M96.5909 445.755C96.1037 446.25 95.4701 446.576 94.7838 446.683C94.0974 446.791 93.3946 446.675 92.7792 446.353C92.6808 446.302 92.5824 446.243 92.4877 446.181C92.3405 446.085 92.2016 445.976 92.0723 445.857L84.5363 440.263L84.0662 439.914L81.5482 438.044C81.2339 437.752 80.9823 437.399 80.8089 437.006C80.6354 436.613 80.5437 436.19 80.5392 435.76C80.5348 435.331 80.6178 434.906 80.7831 434.509C80.9484 434.113 81.1926 433.755 81.5008 433.456L83.4832 431.911L84.3031 431.27L85.4036 430.41L86.3657 429.659L86.5224 429.747L91.9374 432.782L92.5387 433.121L92.6444 433.325L97.3161 442.333C97.5343 442.913 97.582 443.544 97.4535 444.15C97.325 444.756 97.0257 445.313 96.5909 445.755Z" fill="#2F2E41"/>
<path d="M148.669 294.054C144.436 289.258 139.663 286.964 133.94 289.071C124.758 285.989 112.689 307.169 120.121 314.85L132.707 315.899L136.561 308.959L135.197 316.148L145.265 317.153C140.129 309.167 141.777 301.491 148.669 294.054Z" fill="#2F2E41"/>
<path d="M196.086 328.676C201.361 328.676 205.638 324.399 205.638 319.124C205.638 313.848 201.361 309.571 196.086 309.571C190.81 309.571 186.533 313.848 186.533 319.124C186.533 324.399 190.81 328.676 196.086 328.676Z" fill="white"/>
<path d="M217.646 317.853C217.353 317.857 217.073 317.977 216.868 318.186C216.662 318.395 216.547 318.676 216.547 318.97C216.547 319.263 216.662 319.544 216.868 319.753C217.073 319.962 217.353 320.082 217.646 320.086H247.806C248.102 320.091 248.388 319.978 248.601 319.772C248.814 319.566 248.936 319.284 248.941 318.988C248.946 318.692 248.833 318.406 248.627 318.193C248.421 317.98 248.139 317.858 247.842 317.853C247.83 317.852 247.818 317.852 247.806 317.853H217.646Z" fill="white"/>
<path d="M217.645 311.382C217.352 311.387 217.073 311.507 216.867 311.716C216.662 311.924 216.546 312.206 216.546 312.499C216.546 312.792 216.662 313.073 216.867 313.282C217.073 313.491 217.352 313.611 217.645 313.616H232.706C233.002 313.62 233.288 313.507 233.501 313.301C233.714 313.095 233.836 312.813 233.841 312.517C233.845 312.221 233.733 311.935 233.527 311.722C233.321 311.51 233.039 311.387 232.743 311.382C232.731 311.382 232.719 311.382 232.706 311.382H217.645Z" fill="white"/>
<path d="M217.645 324.632C217.352 324.637 217.073 324.757 216.867 324.966C216.662 325.174 216.546 325.456 216.546 325.749C216.546 326.042 216.662 326.323 216.867 326.532C217.073 326.741 217.352 326.861 217.645 326.866H247.805C247.952 326.868 248.098 326.842 248.234 326.788C248.371 326.734 248.495 326.654 248.601 326.552C248.706 326.45 248.791 326.328 248.849 326.193C248.908 326.059 248.939 325.914 248.941 325.767C248.944 325.62 248.917 325.475 248.863 325.338C248.809 325.202 248.729 325.077 248.627 324.972C248.525 324.866 248.403 324.782 248.268 324.724C248.133 324.665 247.989 324.634 247.842 324.632C247.83 324.632 247.817 324.632 247.805 324.632H217.645Z" fill="white"/>
<path d="M226.789 356.237C228.102 356.237 229.167 355.172 229.167 353.859C229.167 352.545 228.102 351.48 226.789 351.48C225.475 351.48 224.41 352.545 224.41 353.859C224.41 355.172 225.475 356.237 226.789 356.237Z" fill="#3A445D"/>
<path d="M236.591 352.627C236.268 352.633 235.96 352.765 235.733 352.995C235.507 353.225 235.38 353.536 235.38 353.859C235.38 354.182 235.507 354.492 235.733 354.722C235.96 354.953 236.268 355.085 236.591 355.09H294.652C294.978 355.094 295.292 354.969 295.525 354.742C295.759 354.515 295.893 354.205 295.898 353.879C295.904 353.553 295.78 353.238 295.554 353.004C295.328 352.769 295.018 352.634 294.692 352.627C294.679 352.627 294.665 352.627 294.652 352.627H236.591Z" fill="#3A445D"/>
<path d="M226.789 367.79C228.102 367.79 229.167 366.725 229.167 365.412C229.167 364.098 228.102 363.033 226.789 363.033C225.475 363.033 224.41 364.098 224.41 365.412C224.41 366.725 225.475 367.79 226.789 367.79Z" fill="#3A445D"/>
<path d="M236.591 364.18C236.268 364.185 235.96 364.317 235.733 364.548C235.507 364.778 235.38 365.088 235.38 365.411C235.38 365.734 235.507 366.045 235.733 366.275C235.96 366.505 236.268 366.637 236.591 366.643H294.652C294.978 366.647 295.292 366.522 295.526 366.295C295.759 366.068 295.894 365.757 295.899 365.432C295.904 365.106 295.78 364.791 295.554 364.557C295.328 364.322 295.018 364.186 294.693 364.18C294.679 364.18 294.666 364.18 294.652 364.18H236.591Z" fill="#3A445D"/>
<path d="M226.789 379.343C228.102 379.343 229.167 378.278 229.167 376.964C229.167 375.651 228.102 374.586 226.789 374.586C225.475 374.586 224.41 375.651 224.41 376.964C224.41 378.278 225.475 379.343 226.789 379.343Z" fill="#3A445D"/>
<path d="M236.591 375.733C236.268 375.738 235.96 375.87 235.733 376.101C235.507 376.331 235.38 376.641 235.38 376.964C235.38 377.287 235.507 377.597 235.733 377.828C235.96 378.058 236.268 378.19 236.591 378.196H294.652C294.978 378.2 295.292 378.075 295.526 377.848C295.759 377.62 295.894 377.31 295.899 376.984C295.904 376.658 295.78 376.344 295.554 376.109C295.328 375.875 295.018 375.739 294.693 375.733C294.679 375.732 294.666 375.732 294.652 375.733H236.591Z" fill="#3A445D"/>
<path d="M226.789 390.895C228.102 390.895 229.167 389.83 229.167 388.516C229.167 387.203 228.102 386.138 226.789 386.138C225.475 386.138 224.41 387.203 224.41 388.516C224.41 389.83 225.475 390.895 226.789 390.895Z" fill="#3A445D"/>
<path d="M236.591 387.285C236.268 387.291 235.96 387.423 235.733 387.653C235.507 387.884 235.38 388.194 235.38 388.517C235.38 388.84 235.507 389.15 235.733 389.38C235.96 389.611 236.268 389.743 236.591 389.748H294.652C294.814 389.752 294.975 389.723 295.126 389.664C295.277 389.605 295.415 389.516 295.532 389.404C295.649 389.291 295.742 389.157 295.807 389.008C295.872 388.859 295.906 388.699 295.909 388.537C295.912 388.375 295.882 388.214 295.823 388.063C295.763 387.912 295.674 387.775 295.561 387.659C295.448 387.542 295.313 387.449 295.164 387.385C295.015 387.321 294.855 387.287 294.692 387.285C294.679 387.285 294.665 387.285 294.652 387.285H236.591Z" fill="#3A445D"/>
<path d="M226.789 402.447C228.102 402.447 229.167 401.382 229.167 400.069C229.167 398.755 228.102 397.69 226.789 397.69C225.475 397.69 224.41 398.755 224.41 400.069C224.41 401.382 225.475 402.447 226.789 402.447Z" fill="#3A445D"/>
<path d="M236.591 398.838C236.268 398.844 235.96 398.976 235.733 399.206C235.507 399.436 235.38 399.747 235.38 400.07C235.38 400.393 235.507 400.703 235.733 400.933C235.96 401.164 236.268 401.296 236.591 401.301H294.652C294.978 401.305 295.292 401.18 295.525 400.953C295.759 400.726 295.893 400.415 295.898 400.09C295.904 399.764 295.78 399.449 295.554 399.215C295.328 398.98 295.018 398.845 294.692 398.838C294.679 398.838 294.665 398.838 294.652 398.838H236.591Z" fill="#3A445D"/>
<path d="M226.789 414C228.102 414 229.167 412.935 229.167 411.622C229.167 410.308 228.102 409.243 226.789 409.243C225.475 409.243 224.41 410.308 224.41 411.622C224.41 412.935 225.475 414 226.789 414Z" fill="#3A445D"/>
<path d="M236.591 410.391C236.268 410.396 235.96 410.528 235.733 410.759C235.507 410.989 235.38 411.299 235.38 411.622C235.38 411.945 235.507 412.256 235.733 412.486C235.96 412.716 236.268 412.848 236.591 412.854H294.652C294.978 412.858 295.292 412.733 295.525 412.506C295.759 412.279 295.893 411.968 295.898 411.642C295.904 411.317 295.78 411.002 295.554 410.768C295.328 410.533 295.018 410.398 294.692 410.391C294.679 410.391 294.665 410.391 294.652 410.391H236.591Z" fill="#3A445D"/>
<path d="M226.789 425.553C228.102 425.553 229.167 424.488 229.167 423.174C229.167 421.861 228.102 420.796 226.789 420.796C225.475 420.796 224.41 421.861 224.41 423.174C224.41 424.488 225.475 425.553 226.789 425.553Z" fill="#3A445D"/>
<path d="M236.591 421.943C236.268 421.948 235.96 422.08 235.733 422.311C235.507 422.541 235.38 422.851 235.38 423.174C235.38 423.497 235.507 423.807 235.733 424.038C235.96 424.268 236.268 424.4 236.591 424.406H294.652C294.978 424.41 295.292 424.285 295.526 424.057C295.759 423.83 295.894 423.52 295.899 423.194C295.904 422.868 295.78 422.554 295.554 422.319C295.328 422.085 295.018 421.949 294.693 421.943C294.679 421.942 294.666 421.942 294.652 421.943H236.591Z" fill="#3A445D"/>
<path d="M339.309 406.209C339.258 407.463 337.991 433.344 320.604 447.486C319.877 448.077 319.122 448.646 318.338 449.195L317.747 448.617H318.09C318.495 448.617 318.884 448.456 319.171 448.169C319.458 447.882 319.619 447.494 319.619 447.088V396.073C319.982 394.116 320.326 392.193 320.638 390.321C322.334 380.144 323.119 371.548 321.848 367.977C322.398 369.356 333.448 397.572 327.447 426.321C333.39 418.183 339.031 409.641 339.309 406.209Z" fill="#3A445D"/>
</g>
<defs>
<clipPath id="clip0">
<rect width="232.623" height="200" fill="white" transform="translate(0 0.524414)"/>
</clipPath>
<clipPath id="clip1">
<rect width="268.309" height="200" fill="white" transform="translate(71 250.524)"/>
</clipPath>
</defs>
</svg>
