<svg width="364" height="94" viewBox="0 0 364 94" fill="none" xmlns="http://www.w3.org/2000/svg">
<path d="M0 0.400391L10.1111 7.32289C20.2222 14.3754 40.4444 28.0254 60.6667 33.3229C80.8889 38.4254 101.111 35.1754 121.333 31.6004C141.556 28.0254 161.778 24.7754 182 28.1229C202.222 31.6004 222.444 42.0004 242.667 50.6779C262.889 59.2254 283.111 66.3754 303.333 62.8004C323.556 59.2254 343.778 45.5754 353.889 38.5229L364 31.6004V94.0004H353.889C343.778 94.0004 323.556 94.0004 303.333 94.0004C283.111 94.0004 262.889 94.0004 242.667 94.0004C222.444 94.0004 202.222 94.0004 182 94.0004C161.778 94.0004 141.556 94.0004 121.333 94.0004C101.111 94.0004 80.8889 94.0004 60.6667 94.0004C40.4444 94.0004 20.2222 94.0004 10.1111 94.0004H0V0.400391Z" fill="#3A445D"/>
</svg>
