<svg width="375" height="81" viewBox="0 0 375 81" fill="none" xmlns="http://www.w3.org/2000/svg">
<path d="M375 76.2998H362.5C350 76.2998 325 76.2998 300 78.1051C275 80.0467 250 83.453 225 74.4945C200 65.3998 175 43.5998 150 39.9551C125 36.4467 100 50.753 75 56.3051C50 61.653 25 58.2467 12.5 56.3051L0 54.4998V-0.000183105H12.5C25 -0.000183105 50 -0.000183105 75 -0.000183105C100 -0.000183105 125 -0.000183105 150 -0.000183105C175 -0.000183105 200 -0.000183105 225 -0.000183105C250 -0.000183105 275 -0.000183105 300 -0.000183105C325 -0.000183105 350 -0.000183105 362.5 -0.000183105H375V76.2998Z" fill="#3A445D"/>
</svg>
