<svg width="345" height="198" viewBox="0 0 345 198" fill="none" xmlns="http://www.w3.org/2000/svg">
<g clip-path="url(#clip0)">
<path d="M56.708 89.6204V34.2278C56.708 33.4367 57.0223 32.6781 57.5816 32.1187C58.141 31.5594 58.8996 31.2451 59.6907 31.2451C60.4817 31.2451 61.2404 31.5594 61.7998 32.1187C62.3591 32.6781 62.6734 33.4367 62.6734 34.2278V89.6204C62.6734 90.4114 62.3591 91.1701 61.7998 91.7294C61.2404 92.2888 60.4817 92.603 59.6907 92.603C58.8996 92.603 58.141 92.2888 57.5816 91.7294C57.0223 91.1701 56.708 90.4114 56.708 89.6204Z" fill="#3A445D"/>
<path d="M49.5713 89.6204V34.2278C49.5713 33.4367 49.8855 32.6781 50.4449 32.1187C51.0043 31.5594 51.7629 31.2451 52.554 31.2451C53.345 31.2451 54.1037 31.5594 54.663 32.1187C55.2224 32.6781 55.5366 33.4367 55.5366 34.2278V89.6204C55.5366 90.4114 55.2224 91.1701 54.663 91.7294C54.1037 92.2888 53.345 92.603 52.554 92.603C51.7629 92.603 51.0043 92.2888 50.4449 91.7294C49.8855 91.1701 49.5713 90.4114 49.5713 89.6204Z" fill="#3A445D"/>
<path d="M42.4341 89.6204V34.2278C42.4341 33.4367 42.7483 32.6781 43.3077 32.1187C43.8671 31.5594 44.6257 31.2451 45.4168 31.2451C46.2078 31.2451 46.9665 31.5594 47.5258 32.1187C48.0852 32.6781 48.3994 33.4367 48.3994 34.2278V89.6204C48.3994 90.4114 48.0852 91.1701 47.5258 91.7294C46.9665 92.2888 46.2078 92.603 45.4168 92.603C44.6257 92.603 43.8671 92.2888 43.3077 91.7294C42.7483 91.1701 42.4341 90.4114 42.4341 89.6204Z" fill="#3A445D"/>
<path d="M311.899 178.093C310.698 178.094 309.506 177.887 308.375 177.481L308.201 177.419L308.281 177.033C306.256 172.942 306.964 167.338 310.093 162.73C312.938 158.541 317.264 155.495 321.081 152.808C321.565 152.468 322.14 152.279 322.732 152.268C323.325 152.257 323.907 152.423 324.404 152.745C324.901 153.067 325.29 153.53 325.521 154.075C325.753 154.62 325.816 155.222 325.703 155.804L324.338 162.806C323.353 167.858 322.181 172.639 318.706 175.62C316.798 177.217 314.388 178.092 311.899 178.093Z" fill="#3A445D"/>
<path d="M320.837 190.193C319.516 190.185 318.217 189.848 317.058 189.21C315.9 188.573 314.92 187.656 314.206 186.543L314.107 186.39L314.343 186.181C314.953 182.85 317.825 179.882 321.681 178.605C325.186 177.445 329.055 177.635 332.466 177.802C332.917 177.824 333.351 177.979 333.714 178.248C334.076 178.517 334.351 178.887 334.502 179.312C334.654 179.738 334.676 180.198 334.566 180.636C334.455 181.073 334.218 181.468 333.883 181.771L330.044 185.235C327.255 187.752 324.473 190.025 321.118 190.188C321.024 190.192 320.931 190.193 320.837 190.193Z" fill="#3A445D"/>
<path d="M308.926 193.897C308.359 189.676 307.776 185.402 308.174 181.136C308.527 177.347 309.658 173.647 311.959 170.613C313.176 169.011 314.662 167.633 316.353 166.543C316.792 166.26 317.196 166.971 316.759 167.254C313.829 169.156 311.575 171.936 310.32 175.196C308.918 178.841 308.693 182.815 308.934 186.687C309.08 189.029 309.39 191.355 309.702 193.678C309.727 193.782 309.712 193.892 309.66 193.986C309.608 194.08 309.523 194.151 309.421 194.184C309.37 194.198 309.316 194.202 309.263 194.195C309.211 194.188 309.16 194.17 309.114 194.143C309.068 194.117 309.027 194.081 308.995 194.039C308.963 193.997 308.939 193.948 308.926 193.897V193.897Z" fill="#F2F2F2"/>
<path d="M307.324 196.323C310.052 191.388 313.216 185.904 318.871 184.151C320.441 183.666 322.09 183.491 323.727 183.638C324.243 183.684 324.114 184.496 323.599 184.451C320.85 184.22 318.107 184.962 315.849 186.547C313.664 188.068 311.962 190.182 310.522 192.424C309.64 193.797 308.85 195.229 308.059 196.658C307.807 197.115 307.068 196.785 307.324 196.323H307.324Z" fill="#F2F2F2"/>
<path d="M306.096 196.25L308.851 196.313L292.242 107.584L289.487 108.103L293.824 131.121H279.851L284.188 108.103L281.434 107.584L264.963 196.313L267.579 196.25L276.238 150.295H297.437L306.096 196.25ZM276.88 146.886L279.209 134.529H294.466L296.795 146.886H276.88Z" fill="#7B7B7B"/>
<path d="M185.815 91.033V61.8942C185.815 61.029 187.153 60.3252 188.798 60.3252C190.443 60.3252 191.781 61.029 191.781 61.8942V91.033C191.781 91.8982 190.443 92.602 188.798 92.602C187.153 92.602 185.815 91.8982 185.815 91.033Z" fill="#3A445D"/>
<path d="M178.678 91.033V61.8942C178.678 61.029 180.016 60.3252 181.661 60.3252C183.306 60.3252 184.644 61.029 184.644 61.8942V91.033C184.644 91.8982 183.306 92.602 181.661 92.602C180.016 92.602 178.678 91.8982 178.678 91.033Z" fill="#3A445D"/>
<path d="M171.541 91.033V61.8942C171.541 61.029 172.879 60.3252 174.524 60.3252C176.168 60.3252 177.506 61.029 177.506 61.8942V91.033C177.506 91.8982 176.168 92.602 174.524 92.602C172.879 92.602 171.541 91.8982 171.541 91.033Z" fill="#3A445D"/>
<path d="M231.585 69.6046C231.571 69.5161 231.539 69.4313 231.491 69.3558C231.443 69.2804 231.38 69.2158 231.305 69.1665L208.819 54.3218C209.157 54.1803 209.441 53.9321 209.626 53.6148H209.626C209.85 53.223 209.911 52.7582 209.794 52.322C209.677 51.8858 209.392 51.5135 209.002 51.2865L207.157 50.2213C206.765 49.9966 206.3 49.9361 205.864 50.053C205.428 50.1699 205.056 50.4547 204.829 50.8452C204.706 51.0597 204.632 51.2988 204.613 51.5452L188.381 40.8295C187.836 39.5093 187.009 38.3238 185.959 37.3557C184.909 36.3875 183.661 35.66 182.3 35.2237V30.499H176.335V35.2237C174.356 35.8566 172.629 37.102 171.404 38.7801C170.178 40.4582 169.518 42.4823 169.518 44.5602V45.8385H175.483C175.483 46.8556 175.887 47.831 176.606 48.5502C177.325 49.2694 178.301 49.6734 179.318 49.6734C180.335 49.6734 181.31 49.2694 182.029 48.5502C182.749 47.831 183.153 46.8556 183.153 45.8385H189.118V44.5602C189.117 43.9474 189.06 43.3361 188.946 42.734L230.008 69.8422L212.951 90.5805C212.818 90.5799 212.687 90.5787 212.553 90.5787C211.192 90.5787 209.874 90.6109 208.617 90.6663C208.693 90.4556 208.726 90.232 208.715 90.0085C208.69 89.5575 208.488 89.1347 208.152 88.8324C207.817 88.5301 207.375 88.3729 206.924 88.3951L204.796 88.5059C204.345 88.5308 203.923 88.733 203.62 89.0686C203.318 89.4041 203.161 89.8456 203.183 90.2967C203.199 90.5632 203.278 90.822 203.414 91.0517C199.652 91.4515 197.214 92.0027 197.214 92.283C197.214 92.7425 203.76 92.3051 211.954 92.2841C211.991 92.3906 212.056 92.4852 212.143 92.5583C212.229 92.6313 212.333 92.68 212.444 92.6996C212.555 92.7191 212.67 92.7087 212.776 92.6694C212.882 92.6301 212.975 92.5633 213.047 92.4759L213.205 92.2842C221.374 92.3069 227.893 92.7415 227.893 92.283C227.893 91.8507 222.097 90.7754 214.588 90.6029L231.446 70.1059C231.503 70.0366 231.545 69.9563 231.569 69.8699C231.593 69.7836 231.598 69.6932 231.585 69.6046Z" fill="#3A445D"/>
<path d="M232.199 196.463H179.697C178.636 196.462 177.619 196.04 176.869 195.289C176.119 194.539 175.697 193.522 175.696 192.461V106.297C175.695 105.349 175.317 104.44 174.647 103.77C173.977 103.1 173.068 102.723 172.12 102.722H49.3121C48.3641 102.723 47.4552 103.1 46.7848 103.77C46.1145 104.44 45.7374 105.349 45.7362 106.297V192.461C45.735 193.522 45.313 194.539 44.5628 195.289C43.8126 196.04 42.7953 196.462 41.7343 196.463H39.938C38.8769 196.462 37.8597 196.04 37.1095 195.289C36.3592 194.539 35.9372 193.522 35.936 192.461V101.657C35.9389 99.1147 36.9499 96.6778 38.7472 94.8805C40.5445 93.0832 42.9814 92.0722 45.5232 92.0693H226.614C229.156 92.0722 231.593 93.0832 233.39 94.8805C235.188 96.6779 236.199 99.1147 236.201 101.657V192.461C236.2 193.522 235.778 194.539 235.028 195.289C234.278 196.04 233.26 196.462 232.199 196.463Z" fill="#9F9F9F"/>
<path d="M235.988 114.44H175.909V116.997H235.988V114.44Z" fill="white"/>
<path d="M235.988 148.954H175.909V151.511H235.988V148.954Z" fill="white"/>
<path d="M126.176 91.6498L124.45 90.9228L123.265 82.2666H107.491L106.207 90.8874L104.662 91.6598C104.588 91.6968 104.529 91.7576 104.494 91.8324C104.459 91.9073 104.45 91.9918 104.469 92.0722C104.488 92.1526 104.534 92.2243 104.599 92.2756C104.663 92.3268 104.744 92.3547 104.826 92.3548H126.034C126.119 92.3548 126.201 92.3255 126.266 92.2718C126.332 92.2182 126.377 92.1435 126.394 92.0605C126.41 91.9775 126.398 91.8912 126.358 91.8164C126.319 91.7415 126.255 91.6827 126.176 91.6498Z" fill="#3A445D"/>
<path d="M154.208 83.417H76.7207C76.3141 83.416 75.9245 83.2539 75.6374 82.9661C75.3502 82.6783 75.189 82.2884 75.189 81.8818V70.9551H155.74V81.8818C155.74 82.2884 155.578 82.6783 155.291 82.9661C155.004 83.2539 154.614 83.416 154.208 83.417Z" fill="#3A445D"/>
<path d="M155.821 76.1203H75.1187V29.3672C75.1192 28.8766 75.3144 28.4062 75.6613 28.0592C76.0083 27.7123 76.4787 27.5172 76.9693 27.5166H153.97C154.461 27.5171 154.931 27.7123 155.278 28.0592C155.625 28.4062 155.821 28.8766 155.821 29.3672V76.1203Z" fill="#3F3D56"/>
<path d="M151.001 72.7263H79.9385C79.5602 72.7259 79.1975 72.5755 78.9301 72.308C78.6626 72.0405 78.5121 71.6779 78.5117 71.2996V32.336C78.5121 31.9577 78.6626 31.595 78.9301 31.3276C79.1975 31.0601 79.5602 30.9096 79.9385 30.9092H151.001C151.379 30.9096 151.742 31.0601 152.009 31.3276C152.277 31.595 152.427 31.9577 152.428 32.336V71.2996C152.427 71.6779 152.277 72.0405 152.009 72.308C151.742 72.5755 151.379 72.7259 151.001 72.7263Z" fill="white"/>
<path d="M230.663 35.383C231.343 35.285 232.036 35.3373 232.693 35.5362C233.351 35.735 233.956 36.0756 234.468 36.5339C234.979 36.9922 235.384 37.557 235.654 38.1887C235.923 38.8204 236.051 39.5035 236.028 40.1899L251.608 46.187L244.55 51.2303L230.837 44.7622C229.686 44.6472 228.618 44.1141 227.834 43.264C227.05 42.4139 226.605 41.3058 226.584 40.1497C226.562 38.9935 226.966 37.8697 227.718 36.9912C228.47 36.1127 229.517 35.5405 230.663 35.383V35.383Z" fill="#9E616A"/>
<path d="M289.821 32.4385L292.457 37.2307C291.82 40.2702 290.174 43.0049 287.786 44.9902C283.75 48.3937 262.65 61.0697 262.65 61.0697L236.011 47.6965L240.671 41.504L261.585 48.5128C269.343 41.1869 278.705 35.7746 288.925 32.7074L289.821 32.4385Z" fill="#9F9F9F"/>
<path d="M284.92 111.737C296.402 111.737 305.709 108.704 305.709 104.963C305.709 101.221 296.402 98.1885 284.92 98.1885C273.438 98.1885 264.13 101.221 264.13 104.963C264.13 108.704 273.438 111.737 284.92 111.737Z" fill="#7B7B7B"/>
<path d="M238.28 190.511L232.76 188.985L236.019 166.965L244.166 169.218L238.28 190.511Z" fill="#9E616A"/>
<path d="M238.209 196.25L220.409 191.329L220.471 191.104C220.979 189.267 222.196 187.706 223.854 186.766C225.513 185.826 227.477 185.583 229.314 186.091L229.315 186.091L240.187 189.096L238.209 196.25Z" fill="#2F2E41"/>
<path d="M222.274 190.582L217.035 188.268L223.465 166.958L231.198 170.372L222.274 190.582Z" fill="#9E616A"/>
<path d="M221.368 196.25L204.474 188.79L204.568 188.577C205.339 186.833 206.77 185.466 208.548 184.777C210.325 184.089 212.304 184.134 214.048 184.904L214.048 184.905L224.366 189.461L221.368 196.25Z" fill="#2F2E41"/>
<path d="M301.1 88.4015C301.1 88.4015 303.877 97.0057 286.838 107.887L264.893 129.754L242.092 184.297L228.555 178.228L231.21 171.141L232.991 166.385L233.903 163.953L234.88 161.345L249.372 122.661L261.546 101.346L261.899 89.7802L264.893 81.6274L286.617 73.9189L301.1 88.4015Z" fill="#2F2E41"/>
<path d="M290.021 88.8273C290.021 88.8273 292.798 97.4315 275.759 108.313L253.814 130.179L231.013 184.722L217.476 178.654L220.131 171.567L221.913 166.811L222.824 164.378L223.801 161.77L238.293 123.086L242.369 115.95C247.747 106.535 254.281 97.8294 261.819 90.0366L265.815 85.9061L266.241 79.5146L275.538 74.3447L290.021 88.8273Z" fill="#2F2E41"/>
<path d="M276.894 46.7049L283.711 32.2176L295.609 30.5947C295.609 30.5947 304.899 42.4304 302.459 59.0617C301.545 65.2985 300.8 71.5076 300.755 76.9578C300.743 78.408 302.012 79.0555 302.033 80.3666C302.054 81.6544 299.629 83.7523 300.329 84.6275C301.33 85.8338 301.926 87.3245 302.033 88.8885C301.189 90.898 275.634 80.0112 264.893 81.6268L276.894 46.7049Z" fill="#9F9F9F"/>
<path d="M293.792 23.3009C296.829 18.1923 295.149 11.5891 290.041 8.55232C284.932 5.51554 278.329 7.1951 275.292 12.3037C272.255 17.4123 273.935 24.0155 279.043 27.0523C284.152 30.0891 290.755 28.4095 293.792 23.3009Z" fill="#9E616A"/>
<path d="M291.422 13.9389C291.401 14.222 291.373 14.597 291.34 15.0213C291.306 16.1827 291.634 17.326 292.277 18.2937C292.879 19.3118 292.16 25.461 292.16 25.461C309.787 13.1739 295.859 0.829633 290.411 1.92696C290.525 0.364404 286.081 0.983413 286.081 0.983413C284.388 -1.6532 280.678 1.84669 280.678 1.84669L281.394 0.642138C278.513 1.3749 275.666 10.2785 275.666 10.2785C276.643 14.1196 291.535 12.3763 291.422 13.9389Z" fill="#2F2E41"/>
<path d="M223.042 52.4034C229.099 44.3464 233.887 35.4098 237.24 25.904C237.435 25.3354 237.421 24.7163 237.201 24.157C236.982 23.5976 236.571 23.1342 236.042 22.8494L215.315 11.7431C214.979 11.562 214.607 11.4599 214.226 11.4444C213.846 11.429 213.466 11.5006 213.117 11.6539C212.762 11.8083 212.447 12.0418 212.195 12.3365C211.943 12.6313 211.762 12.9795 211.666 13.3548C209.253 22.5148 204.718 30.9784 198.428 38.0607C198.169 38.3489 197.979 38.6925 197.873 39.0652C197.767 39.4378 197.747 39.8298 197.816 40.2113C197.881 40.5867 198.032 40.9421 198.256 41.2506C198.479 41.559 198.77 41.8123 199.107 41.9913L219.835 53.0976C220.365 53.3803 220.978 53.4657 221.565 53.3386C222.153 53.2115 222.676 52.8801 223.042 52.4034Z" fill="#CDCDCD"/>
<path d="M221.627 51.3409C221.516 51.48 221.359 51.5759 221.185 51.612C221.01 51.648 220.828 51.622 220.671 51.5384L199.943 40.4319C199.842 40.3794 199.755 40.3044 199.688 40.2126C199.622 40.1208 199.577 40.0148 199.558 39.9029C199.536 39.7847 199.543 39.6632 199.576 39.5477C199.609 39.4323 199.669 39.3262 199.75 39.2377C206.226 31.9467 210.894 23.2338 213.378 13.8038C213.406 13.6873 213.462 13.579 213.539 13.4875C213.617 13.3959 213.714 13.3235 213.825 13.276C213.928 13.2296 214.042 13.2078 214.155 13.2125C214.269 13.2172 214.38 13.2482 214.479 13.3031L235.207 24.4093C235.364 24.4941 235.486 24.6312 235.553 24.7967C235.62 24.9622 235.626 25.1458 235.572 25.3158C232.279 34.6515 227.576 43.4281 221.627 51.3409Z" fill="white"/>
<path d="M214.375 23.8553L228.672 32.235C230.094 33.0687 231.382 30.8599 229.962 30.0274L215.666 21.6477C214.243 20.814 212.955 23.0229 214.375 23.8553V23.8553Z" fill="#2EC4B6"/>
<path d="M211.819 28.5418L226.115 36.9215C227.538 37.7552 228.826 35.5464 227.406 34.714L213.109 26.3343C211.687 25.5005 210.399 27.7094 211.819 28.5418V28.5418Z" fill="#2EC4B6"/>
<path d="M208.836 33.6551L223.133 42.0348C224.555 42.8685 225.843 40.6597 224.423 39.8272L210.127 31.4475C208.704 30.6138 207.416 32.8227 208.836 33.6551V33.6551Z" fill="#2EC4B6"/>
<path d="M205.854 37.9168L220.15 46.2965C221.572 47.1302 222.861 44.9214 221.44 44.089L207.144 35.7093C205.721 34.8755 204.433 37.0844 205.854 37.9168V37.9168Z" fill="#2EC4B6"/>
<path d="M271.027 87.2067L276.395 99.2761C276.524 99.565 276.579 99.8816 276.556 100.197C276.532 100.513 276.43 100.818 276.259 101.084C276.057 101.403 275.766 101.654 275.422 101.807C275.077 101.96 274.696 102.008 274.324 101.945C274.198 101.925 274.074 101.892 273.954 101.846C273.48 101.663 273.097 101.299 272.891 100.834L267.523 88.7649C267.421 88.5348 267.365 88.2869 267.359 88.0351C267.352 87.7834 267.395 87.5329 267.486 87.2979C267.668 86.8232 268.032 86.4404 268.496 86.2338C268.961 86.0271 269.489 86.0136 269.963 86.196C270.438 86.3785 270.821 86.742 271.027 87.2067Z" fill="#2EC4B6"/>
<path d="M275.962 98.3027L277.037 100.739L277.587 104.192C277.623 104.419 277.583 104.652 277.473 104.855C277.364 105.057 277.19 105.218 276.98 105.311C276.769 105.405 276.534 105.426 276.31 105.372C276.086 105.318 275.887 105.192 275.742 105.012L273.517 102.244L272.458 99.861L275.962 98.3027Z" fill="#3F3D56"/>
<path d="M266.33 83.8488L267.1 88.6808C267.125 88.839 267.186 88.9893 267.278 89.1201C267.371 89.2508 267.492 89.3586 267.633 89.435C267.774 89.5114 267.93 89.5545 268.09 89.5608C268.25 89.5671 268.41 89.5365 268.556 89.4714L269.319 89.1323L270.79 92.4417C270.836 92.5447 270.921 92.6253 271.027 92.6658C271.132 92.7062 271.249 92.7031 271.352 92.6572C271.456 92.6114 271.536 92.5264 271.577 92.4211C271.618 92.3158 271.615 92.1986 271.569 92.0954L270.097 88.786L270.86 88.4469C271.113 88.3344 271.31 88.1263 271.41 87.8681C271.51 87.61 271.503 87.3229 271.392 87.0696C271.354 86.9857 271.306 86.9071 271.248 86.8358L268.176 83.0283C268.031 82.8491 267.831 82.7227 267.607 82.6688C267.384 82.6148 267.148 82.6363 266.938 82.7298C266.727 82.8234 266.554 82.9838 266.444 83.1861C266.334 83.3885 266.294 83.6214 266.33 83.8488Z" fill="#3F3D56"/>
<path d="M268.557 92.5703C268.678 91.8942 268.946 91.2529 269.341 90.6915C269.737 90.1301 270.251 89.6622 270.847 89.3209C271.443 88.9796 272.106 88.7731 272.791 88.716C273.475 88.6589 274.164 88.7525 274.808 88.9903L285.403 76.0889L287.969 84.3762L277.514 95.3571C277.043 96.413 276.201 97.2594 275.147 97.7358C274.094 98.2123 272.902 98.2857 271.798 97.9422C270.694 97.5987 269.754 96.8621 269.157 95.872C268.559 94.8819 268.346 93.7071 268.557 92.5703Z" fill="#9E616A"/>
<path d="M281.896 91.7324L277.229 84.9918L290.48 67.3236L283.654 52.6957L284.151 35.2959L289.792 34.2539L289.862 34.289C292.604 35.8676 294.724 38.3369 295.87 41.2867C297.277 44.8047 300.418 58.0112 302.166 65.57C302.509 67.0348 302.471 68.5631 302.056 70.0093C301.642 71.4555 300.864 72.7714 299.796 73.8317L281.896 91.7324Z" fill="#9F9F9F"/>
<path d="M150.503 59.1617C150.464 59.4891 150.452 59.819 150.465 60.1484L126.572 77.5305L120.008 74.6257L114.33 83.9586L125.45 90.2304C126.348 90.7371 127.387 90.9387 128.409 90.8049C129.432 90.6712 130.384 90.2093 131.122 89.4886L155.168 66.0007C156.399 66.3135 157.696 66.2441 158.887 65.8018C160.077 65.3595 161.105 64.5652 161.833 63.5246C162.561 62.484 162.955 61.2465 162.962 59.9765C162.97 58.7065 162.591 57.4644 161.875 56.4153C161.159 55.3661 160.141 54.5597 158.956 54.1033C157.771 53.6469 156.475 53.5622 155.24 53.8603C154.006 54.1585 152.891 54.8254 152.045 55.7724C151.199 56.7194 150.661 57.9015 150.503 59.1617V59.1617Z" fill="#FFB6B6"/>
<path d="M125.8 78.1662L118.832 89.7765C118.634 90.1068 118.367 90.3905 118.049 90.6083C117.731 90.8261 117.37 90.9729 116.991 91.0386C116.611 91.1043 116.222 91.0874 115.849 90.9891C115.477 90.8908 115.13 90.7133 114.832 90.4688L104.4 81.9011C102.716 80.877 101.507 79.2271 101.037 77.3129C100.568 75.3987 100.876 73.3764 101.895 71.6894C102.915 70.0024 104.561 68.7883 106.474 68.3133C108.387 67.8382 110.41 68.141 112.1 69.1552L124.529 74.3106C124.885 74.4583 125.204 74.6809 125.466 74.9634C125.728 75.2459 125.926 75.5815 126.047 75.9474C126.168 76.3133 126.208 76.7009 126.165 77.0837C126.123 77.4666 125.998 77.8358 125.8 78.1662L125.8 78.1662Z" fill="#2EC4B6"/>
<path d="M95.9461 179.081H109.604V156.449H95.9461V179.081Z" fill="#7B7B7B"/>
<path d="M108.919 168.425L107.166 171.008L139.944 193.25L141.697 190.667L108.919 168.425Z" fill="#7B7B7B"/>
<path d="M96.6304 168.425L63.8525 190.667L65.6055 193.25L98.3833 171.008L96.6304 168.425Z" fill="#7B7B7B"/>
<path d="M140.821 196.251C143.191 196.251 145.113 194.329 145.113 191.958C145.113 189.588 143.191 187.666 140.821 187.666C138.45 187.666 136.528 189.588 136.528 191.958C136.528 194.329 138.45 196.251 140.821 196.251Z" fill="#7B7B7B"/>
<path d="M102.579 196.251C104.95 196.251 106.872 194.329 106.872 191.958C106.872 189.588 104.95 187.666 102.579 187.666C100.209 187.666 98.2871 189.588 98.2871 191.958C98.2871 194.329 100.209 196.251 102.579 196.251Z" fill="#7B7B7B"/>
<path d="M64.7289 196.251C67.0995 196.251 69.0212 194.329 69.0212 191.958C69.0212 189.588 67.0995 187.666 64.7289 187.666C62.3583 187.666 60.4365 189.588 60.4365 191.958C60.4365 194.329 62.3583 196.251 64.7289 196.251Z" fill="#7B7B7B"/>
<path d="M104.14 169.717H101.019V191.959H104.14V169.717Z" fill="#7B7B7B"/>
<path d="M99.848 166.595H105.701V136.548H99.848V166.595Z" fill="#7B7B7B"/>
<path d="M85.9956 141.231V134.207C85.9971 132.914 86.5114 131.674 87.4258 130.759C88.3403 129.845 89.5801 129.331 90.8733 129.329H117.018C118.311 129.331 119.55 129.845 120.465 130.759C121.379 131.674 121.894 132.914 121.895 134.207V141.231C121.894 142.524 121.379 143.764 120.465 144.678C119.55 145.592 118.311 146.107 117.017 146.108H90.8733C89.5801 146.107 88.3403 145.592 87.4258 144.678C86.5114 143.764 85.9971 142.524 85.9956 141.231Z" fill="#3F3D56"/>
<path d="M133.215 189.242L140.445 189.241L143.886 170.488L133.214 170.489L133.215 189.242Z" fill="#FFB8B8"/>
<path d="M131.372 196.251L154.685 196.25V195.955C154.685 194.764 154.451 193.584 153.995 192.483C153.539 191.382 152.87 190.381 152.028 189.539C151.185 188.696 150.185 188.028 149.084 187.572C147.983 187.116 146.803 186.881 145.611 186.881H145.61L131.371 186.881L131.372 196.251Z" fill="#2F2E41"/>
<path d="M144.03 177.612L158.444 145.289C159.648 142.564 159.781 139.486 158.817 136.668C157.853 133.85 155.863 131.499 153.243 130.082L121.978 113.316L107.71 112.102L94.5498 110.906L94.455 111.067C94.3336 111.272 91.5039 116.159 93.4167 121.519C94.8675 125.584 98.6414 128.759 104.633 130.956C118.619 136.084 134.776 140.467 141.073 142.113C141.351 142.185 141.611 142.314 141.836 142.493C142.061 142.672 142.245 142.896 142.377 143.151C142.509 143.404 142.588 143.68 142.608 143.964C142.628 144.249 142.589 144.534 142.493 144.802L129.101 174.889C128.961 175.27 128.911 175.679 128.954 176.083C128.997 176.487 129.132 176.876 129.349 177.22C129.567 177.563 129.86 177.852 130.206 178.065C130.553 178.277 130.943 178.407 131.348 178.445L141.354 179.173C141.439 179.181 141.524 179.185 141.608 179.185C142.12 179.185 142.622 179.037 143.052 178.757C143.481 178.478 143.821 178.081 144.03 177.612Z" fill="#2F2E41"/>
<path d="M128.497 189.242L135.727 189.241L139.167 170.488L128.496 170.489L128.497 189.242Z" fill="#FFB8B8"/>
<path d="M126.653 196.251L149.967 196.25V195.955C149.967 194.764 149.732 193.584 149.276 192.483C148.82 191.382 148.152 190.381 147.309 189.539C146.467 188.696 145.467 188.028 144.366 187.572C143.265 187.116 142.085 186.881 140.893 186.881H140.892L126.653 186.881L126.653 196.251Z" fill="#2F2E41"/>
<path d="M138.721 179.382L153.136 147.059C154.339 144.334 154.473 141.256 153.509 138.438C152.545 135.62 150.555 133.269 147.935 131.852L116.669 115.086L102.402 113.872L92.0942 112.978L92.0956 112.837C91.9742 113.042 89.1446 117.929 91.0573 123.289C92.5081 127.354 93.3331 130.529 99.3251 132.726C113.311 137.854 129.468 142.237 135.765 143.883C136.043 143.955 136.303 144.084 136.528 144.263C136.753 144.442 136.937 144.666 137.069 144.921C137.201 145.174 137.28 145.45 137.3 145.734C137.319 146.019 137.28 146.304 137.185 146.572L123.793 176.659C123.653 177.04 123.603 177.449 123.646 177.853C123.689 178.257 123.824 178.646 124.041 178.99C124.258 179.333 124.551 179.622 124.898 179.835C125.244 180.047 125.635 180.177 126.04 180.215L136.046 180.943C136.131 180.951 136.216 180.955 136.3 180.955C136.812 180.955 137.314 180.807 137.743 180.527C138.173 180.248 138.513 179.851 138.721 179.382Z" fill="#2F2E41"/>
<path d="M129.68 40.1553C131.531 32.3724 126.722 24.5626 118.939 22.7116C111.156 20.8607 103.346 25.6696 101.495 33.4526C99.6445 41.2356 104.453 49.0454 112.236 50.8963C120.019 52.7472 127.829 47.9383 129.68 40.1553Z" fill="#FFB8B8"/>
<path d="M165.519 92.4571C171.576 84.4001 176.364 75.4635 179.718 65.9577C179.912 65.3891 179.898 64.77 179.679 64.2107C179.459 63.6513 179.048 63.1879 178.519 62.9031L157.792 51.7968C157.456 51.6157 157.084 51.5136 156.703 51.4982C156.323 51.4827 155.943 51.5543 155.594 51.7076C155.239 51.862 154.924 52.0955 154.672 52.3902C154.42 52.685 154.24 53.0332 154.143 53.4085C151.73 62.5685 147.195 71.0321 140.905 78.1144C140.646 78.4026 140.456 78.7462 140.35 79.1189C140.244 79.4916 140.225 79.8835 140.293 80.265C140.358 80.6404 140.509 80.9958 140.733 81.3043C140.956 81.6127 141.248 81.8661 141.584 82.045L162.312 93.1513C162.842 93.434 163.455 93.5194 164.042 93.3923C164.63 93.2652 165.153 92.9338 165.519 92.4571Z" fill="#CDCDCD"/>
<path d="M164.104 91.3936C163.992 91.5328 163.836 91.6286 163.661 91.6647C163.487 91.7008 163.305 91.6748 163.147 91.5912L142.42 80.4846C142.319 80.4322 142.232 80.3571 142.165 80.2653C142.098 80.1735 142.054 80.0675 142.035 79.9556C142.013 79.8374 142.019 79.7159 142.052 79.6005C142.086 79.4851 142.145 79.3789 142.226 79.2904C148.702 71.9995 153.371 63.2865 155.854 53.8566C155.883 53.7401 155.938 53.6318 156.016 53.5402C156.093 53.4486 156.191 53.3763 156.301 53.3287C156.405 53.2823 156.518 53.2606 156.632 53.2653C156.745 53.27 156.856 53.301 156.956 53.3558L177.683 64.462C177.84 64.5469 177.963 64.6839 178.03 64.8494C178.096 65.0149 178.103 65.1986 178.049 65.3686C174.755 74.7042 170.053 83.4808 164.104 91.3936Z" fill="white"/>
<path d="M156.853 63.908L171.149 72.2877C172.571 73.1215 173.86 70.9126 172.439 70.0802L158.143 61.7005C156.72 60.8667 155.432 63.0756 156.853 63.908V63.908Z" fill="#3A445D"/>
<path d="M154.296 68.5955L168.592 76.9752C170.015 77.8089 171.303 75.6001 169.883 74.7677L155.586 66.388C154.164 65.5542 152.876 67.7631 154.296 68.5955V68.5955Z" fill="#3A445D"/>
<path d="M152.287 73.2646L165.289 80.9832C166.583 81.7512 167.966 80.1635 166.675 79.3967L153.673 71.6781C152.379 70.9101 150.995 72.4979 152.287 73.2646Z" fill="#3A445D"/>
<path d="M148.331 77.9696L162.627 86.3492C164.049 87.183 165.338 84.9741 163.917 84.1417L149.621 75.762C148.198 74.9283 146.91 77.1371 148.331 77.9695V77.9696Z" fill="#3A445D"/>
<path d="M123.94 114.489L95.2743 114.318L95.2665 114.114C94.7199 99.7315 96.4777 86.7031 100.64 74.2847C100.699 73.8199 100.763 73.3231 100.825 72.8354C101.536 67.2795 102.101 62.8683 107.384 61.2255C106.944 60.6402 106.684 59.939 106.637 59.2082C106.604 58.7225 106.668 58.235 106.825 57.7742C106.982 57.3133 107.229 56.8883 107.551 56.5239C107.86 56.1719 108.236 55.8849 108.657 55.6796C109.078 55.4743 109.535 55.3547 110.003 55.328L120.206 54.9805C120.742 54.9769 121.264 55.1538 121.687 55.4828C122.464 56.0598 123.01 56.8946 123.227 57.8375C123.444 58.7804 123.319 59.77 122.873 60.6288C122.753 60.8681 122.707 60.9771 122.689 61.0245C123.052 62.9249 124.128 65.1823 125.267 67.5712C126.898 70.9916 128.746 74.8681 129.221 79.0155C129.478 81.2547 129.371 83.5208 128.906 85.726C128.693 86.9144 128.644 88.1263 128.76 89.3279C128.853 91.1097 128.941 92.792 127.934 94.419C127.677 94.8601 127.384 95.3303 127.039 95.8512L125.622 99.238L123.94 114.489Z" fill="#2EC4B6"/>
<path d="M80.9229 134.617V76.0446C80.925 74.136 81.6842 72.3062 83.0338 70.9566C84.3833 69.607 86.2132 68.8479 88.1218 68.8457H90.1129C92.0215 68.8479 93.8513 69.607 95.2009 70.9566C96.5505 72.3062 97.3096 74.136 97.3118 76.0446V134.617C97.3096 136.525 96.5505 138.355 95.2009 139.705C93.8513 141.054 92.0215 141.813 90.1129 141.815H88.1218C86.2132 141.813 84.3833 141.054 83.0338 139.705C81.6842 138.355 80.925 136.525 80.9229 134.617Z" fill="#3F3D56"/>
<path d="M157.792 81.8914C157.586 82.1489 157.401 82.4223 157.239 82.709L127.771 84.8607L123.729 78.9287L113.979 83.858L120.114 95.0547C120.609 95.9592 121.385 96.6786 122.324 97.1048C123.263 97.531 124.315 97.6411 125.323 97.4185L158.145 90.1626C159.025 91.0779 160.163 91.7035 161.408 91.9563C162.652 92.209 163.944 92.0768 165.112 91.5773C166.28 91.0778 167.267 90.2346 167.944 89.16C168.621 88.0853 168.954 86.8301 168.9 85.5613C168.846 84.2924 168.407 83.0701 167.642 82.0569C166.876 81.0437 165.82 80.2876 164.614 79.8892C163.408 79.4908 162.11 79.469 160.891 79.8266C159.672 80.1843 158.592 80.9045 157.792 81.8914Z" fill="#FFB6B6"/>
<path d="M126.779 84.9915L114.733 91.1747C114.39 91.3506 114.014 91.4506 113.629 91.4678C113.244 91.4851 112.86 91.4192 112.503 91.2746C112.146 91.13 111.824 90.9102 111.559 90.63C111.295 90.3499 111.094 90.016 110.97 89.6512L106.632 76.8677C105.743 75.1128 105.584 73.077 106.192 71.2057C106.799 69.3344 108.123 67.7798 109.874 66.8819C104.534 69.6228 115.655 61.8372 119.9 70.1065L127.735 81.0459C127.959 81.3592 128.113 81.7171 128.187 82.0953C128.26 82.4735 128.251 82.8631 128.161 83.2375C128.07 83.612 127.9 83.9625 127.661 84.2651C127.423 84.5678 127.122 84.8155 126.779 84.9915H126.779Z" fill="#2EC4B6"/>
<path d="M109.044 50.8919C108.172 50.8919 107.21 50.4717 106.126 49.6203C102.934 47.1142 100.653 43.6303 99.6317 39.703C98.6106 35.7756 98.9063 31.6217 100.473 27.8786C101.262 25.9948 102.737 23.4345 105.285 21.934C107.117 20.8559 109.268 20.4664 111.141 20.1859C112.763 19.9429 114.405 19.7494 116.022 19.6117C117.953 19.4465 120.185 19.335 122.22 20.1081C123.711 20.6748 124.98 21.6756 126.207 22.6435C126.635 22.9805 127.077 23.3296 127.52 23.6525C128.594 24.49 129.832 25.0913 131.154 25.4173C131.433 25.4751 131.696 25.5921 131.926 25.7605C132.156 25.9288 132.347 26.1445 132.486 26.393C132.628 26.6456 132.714 26.9258 132.739 27.2146C132.763 27.5034 132.726 27.7941 132.628 28.067C132.437 28.6038 132.264 29.0877 132.614 29.612C132.743 29.7968 132.916 29.9469 133.117 30.0493C133.318 30.1517 133.541 30.2033 133.767 30.1996C133.886 30.1977 134.003 30.2255 134.109 30.2806C134.214 30.3357 134.305 30.4162 134.371 30.515C134.439 30.6129 134.481 30.7258 134.495 30.8439C134.509 30.962 134.493 31.0816 134.45 31.1924L134.394 31.3368C134.544 31.3508 134.688 31.401 134.815 31.4832C134.941 31.5653 135.045 31.6769 135.119 31.8083C135.228 31.9954 135.27 32.2143 135.239 32.4287C135.207 32.6431 135.103 32.8402 134.944 32.9875C133.651 34.218 132.039 35.0614 130.292 35.4222C129.096 35.6568 127.865 35.654 126.67 35.4139L126.478 35.3764L126.502 35.1634C121.668 33.4394 117.305 36.3651 114.817 39.7098L114.458 39.483C114.52 39.3584 114.556 39.2225 114.563 39.0837C114.571 38.9448 114.551 38.8057 114.504 38.6749C114.454 38.518 114.373 38.3724 114.267 38.2466C114.16 38.1208 114.03 38.0172 113.884 37.9417C113.587 37.8195 113.262 37.7878 112.947 37.8505C112.633 37.9132 112.344 38.0676 112.118 38.2942C111.887 38.5361 111.709 38.8234 111.595 39.1378C111.482 39.4523 111.435 39.7869 111.457 40.1205C111.523 40.8275 111.703 41.5191 111.991 42.1682C112.108 42.4786 112.229 42.7998 112.327 43.1236C112.877 44.9627 112.731 46.9401 111.915 48.6778C111.538 49.4705 110.857 50.4812 109.752 50.7945C109.522 50.8596 109.283 50.8924 109.044 50.8919Z" fill="#2F2E41"/>
<path d="M344.493 197.103H0.507344C0.373042 197.102 0.244377 197.049 0.149548 196.953C0.0547194 196.858 0.00146484 196.73 0.00146484 196.595C0.00146484 196.461 0.0547194 196.332 0.149548 196.237C0.244377 196.142 0.373042 196.088 0.507344 196.088H344.493C344.627 196.088 344.756 196.141 344.851 196.236C344.947 196.332 345 196.461 345 196.595C345 196.73 344.947 196.859 344.851 196.954C344.756 197.049 344.627 197.103 344.493 197.103Z" fill="#7B7B7B"/>
</g>
<defs>
<clipPath id="clip0">
<rect width="345" height="197.103" fill="white"/>
</clipPath>
</defs>
</svg>
