<svg width="387" height="120" viewBox="0 0 387 120" fill="none" xmlns="http://www.w3.org/2000/svg">
<path d="M387 11.9784L374.449 17.9676C361.897 23.9569 336.795 35.9353 311.692 45.9298C286.589 55.7745 261.486 64.0097 236.384 57.9082C211.281 52.0313 186.178 31.8177 161.076 25.9408C135.973 19.8393 110.87 28.0744 85.7676 25.9408C60.6649 23.9569 35.5622 11.9784 23.0108 5.98922L10.4595 1.56814e-06H23.0108C35.5622 1.56814e-06 60.6649 1.56814e-06 85.7676 1.56814e-06C110.87 1.56814e-06 135.973 1.56814e-06 161.076 1.56814e-06C186.178 1.56814e-06 211.281 1.56814e-06 236.384 1.56814e-06C261.486 1.56814e-06 286.589 1.56814e-06 311.692 1.56814e-06C336.795 1.56814e-06 361.897 1.56814e-06 374.449 1.56814e-06H387V11.9784Z" fill="#3A445D"/>
</svg>
