<svg width="387" height="120" viewBox="0 0 387 120" fill="none" xmlns="http://www.w3.org/2000/svg">
<path d="M0 108.022L12.5514 102.032C25.1027 96.0431 50.2054 84.0647 75.3081 74.0702C100.411 64.2255 125.514 55.9903 150.616 62.0918C175.719 67.9687 200.822 88.1823 225.924 94.0592C251.027 100.161 276.13 91.9256 301.232 94.0592C326.335 96.0431 351.438 108.022 363.989 114.011L376.541 120H363.989C351.438 120 326.335 120 301.232 120C276.13 120 251.027 120 225.924 120C200.822 120 175.719 120 150.616 120C125.514 120 100.411 120 75.3081 120C50.2054 120 25.1027 120 12.5514 120H0V108.022Z" fill="#3A445D"/>
</svg>
