<svg width="770" height="773" viewBox="0 0 770 773" fill="none" xmlns="http://www.w3.org/2000/svg">
<g clip-path="url(#clip0)">
<path d="M74.0477 651.123L67.2662 624.377C55.2423 619.282 42.9406 614.868 30.4197 611.158L29.5637 623.588L26.0923 609.893C10.5641 605.454 0 603.501 0 603.501C0 603.501 14.266 657.763 44.1977 699.246L79.0708 705.372L51.9789 709.279C55.744 713.809 59.7902 718.098 64.0936 722.12C107.631 762.532 156.124 781.074 172.405 763.533C188.685 745.992 166.59 699.013 123.053 658.605C109.556 646.077 92.6008 636.024 75.6284 628.109L74.0477 651.123Z" fill="#F2F2F2"/>
<path d="M138.54 622.072L146.56 595.672C138.902 585.094 130.653 574.957 121.853 565.309L114.695 575.507L118.801 561.989C107.801 550.167 99.7675 543.035 99.7675 543.035C99.7675 543.035 83.9354 596.86 88.1118 647.843L114.799 671.113L89.5829 660.453C90.4652 666.278 91.7129 672.042 93.3189 677.71C109.7 734.809 141.628 775.748 164.631 769.148C187.635 762.549 193.004 710.911 176.623 653.812C171.545 636.11 162.227 618.74 151.789 603.193L138.54 622.072Z" fill="#F2F2F2"/>
<path d="M537.301 183.484H533.071V67.5984C533.071 58.7901 531.336 50.0681 527.965 41.9303C524.594 33.7925 519.654 26.3983 513.425 20.1699C507.197 13.9415 499.803 9.00089 491.665 5.63011C483.527 2.25933 474.805 0.524414 465.997 0.524414H220.47C202.681 0.524414 185.62 7.59112 173.041 20.1699C160.463 32.7487 153.396 49.8092 153.396 67.5984V703.366C153.396 712.174 155.131 720.896 158.502 729.034C161.872 737.172 166.813 744.566 173.041 750.794C179.27 757.022 186.664 761.963 194.802 765.334C202.94 768.705 211.662 770.44 220.47 770.44H465.997C483.786 770.439 500.846 763.372 513.425 750.794C526.003 738.215 533.07 721.155 533.07 703.366V265.973H537.3L537.301 183.484Z" fill="#333333"/>
<path d="M468.704 17.9688H436.657C438.131 21.5824 438.693 25.503 438.295 29.3853C437.897 33.2676 436.55 36.9923 434.373 40.2313C432.196 43.4704 429.255 46.1243 425.811 47.9592C422.367 49.7941 418.524 50.7538 414.621 50.7537H273.962C270.059 50.7535 266.216 49.7936 262.772 47.9585C259.328 46.1234 256.388 43.4695 254.211 40.2305C252.035 36.9915 250.688 33.2669 250.29 29.3848C249.891 25.5027 250.454 21.5822 251.928 17.9688H221.994C208.709 17.9688 195.969 23.2461 186.575 32.6398C177.181 42.0336 171.904 54.7742 171.904 68.0589V702.903C171.904 716.188 177.181 728.928 186.575 738.322C195.969 747.716 208.709 752.993 221.994 752.993H468.704C481.988 752.993 494.729 747.716 504.123 738.322C513.517 728.928 518.794 716.188 518.794 702.903V68.0579C518.794 54.7733 513.516 42.033 504.123 32.6395C494.729 23.2459 481.988 17.9687 468.704 17.9688Z" fill="white"/>
<path d="M313.911 270.857C313.911 266.42 315.079 262.06 317.298 258.218C319.518 254.375 322.71 251.185 326.554 248.968C322.712 246.749 318.353 245.581 313.916 245.58C309.479 245.58 305.12 246.747 301.277 248.965C297.434 251.184 294.243 254.374 292.024 258.217C289.806 262.06 288.638 266.419 288.638 270.856C288.638 275.293 289.806 279.652 292.024 283.494C294.243 287.337 297.434 290.528 301.277 292.746C305.12 294.964 309.479 296.132 313.916 296.131C318.353 296.131 322.712 294.962 326.554 292.743C322.71 290.527 319.518 287.337 317.299 283.495C315.079 279.653 313.911 275.294 313.911 270.857Z" fill="#3A445D"/>
<path d="M345.688 270.857C345.687 266.42 346.855 262.06 349.074 258.218C351.294 254.375 354.486 251.185 358.331 248.968C354.488 246.749 350.13 245.581 345.693 245.58C341.255 245.58 336.896 246.747 333.054 248.965C329.211 251.184 326.02 254.374 323.801 258.217C321.582 262.06 320.414 266.419 320.414 270.856C320.414 275.293 321.582 279.652 323.801 283.494C326.02 287.337 329.211 290.528 333.054 292.746C336.896 294.964 341.255 296.132 345.693 296.131C350.13 296.131 354.488 294.962 358.331 292.743C354.487 290.527 351.294 287.337 349.075 283.495C346.855 279.653 345.687 275.294 345.688 270.857Z" fill="#3A445D"/>
<path d="M376.74 296.132C390.7 296.132 402.016 284.816 402.016 270.857C402.016 256.897 390.7 245.581 376.74 245.581C362.781 245.581 351.465 256.897 351.465 270.857C351.465 284.816 362.781 296.132 376.74 296.132Z" fill="#2EC4B6"/>
<path d="M418.982 349.803H271.67C270.267 349.801 268.923 349.243 267.931 348.251C266.939 347.26 266.382 345.915 266.38 344.513V197.201C266.382 195.798 266.939 194.454 267.931 193.462C268.923 192.471 270.267 191.913 271.67 191.911H418.982C420.384 191.913 421.728 192.471 422.72 193.462C423.712 194.454 424.27 195.798 424.271 197.201V344.513C424.27 345.915 423.712 347.26 422.72 348.251C421.728 349.243 420.384 349.801 418.982 349.803ZM271.67 194.028C270.828 194.029 270.021 194.364 269.426 194.959C268.831 195.554 268.497 196.361 268.496 197.202V344.514C268.497 345.355 268.831 346.162 269.426 346.757C270.021 347.352 270.828 347.687 271.67 347.688H418.982C419.823 347.687 420.63 347.352 421.225 346.757C421.82 346.162 422.154 345.355 422.155 344.514V197.202C422.154 196.361 421.82 195.554 421.225 194.959C420.63 194.364 419.823 194.029 418.982 194.028H271.67Z" fill="#3A445D"/>
<path d="M451.875 462.724H225.943V464.84H451.875V462.724Z" fill="#3A445D"/>
<path d="M233.078 449.512C237.019 449.512 240.213 446.318 240.213 442.377C240.213 438.437 237.019 435.242 233.078 435.242C229.137 435.242 225.943 438.437 225.943 442.377C225.943 446.318 229.137 449.512 233.078 449.512Z" fill="#2EC4B6"/>
<path d="M451.875 534.07H225.943V536.186H451.875V534.07Z" fill="#3A445D"/>
<path d="M233.078 520.86C237.019 520.86 240.213 517.666 240.213 513.725C240.213 509.784 237.019 506.59 233.078 506.59C229.137 506.59 225.943 509.784 225.943 513.725C225.943 517.666 229.137 520.86 233.078 520.86Z" fill="#2EC4B6"/>
<path d="M447.741 615.317H376.34C375.107 615.315 373.924 614.825 373.052 613.953C372.18 613.081 371.689 611.898 371.688 610.665V585.639C371.689 584.406 372.18 583.223 373.052 582.351C373.924 581.479 375.107 580.989 376.34 580.987H447.741C448.974 580.989 450.156 581.479 451.028 582.351C451.901 583.223 452.391 584.406 452.392 585.639V610.665C452.391 611.898 451.901 613.081 451.028 613.953C450.156 614.825 448.974 615.315 447.741 615.317Z" fill="#2EC4B6"/>
<path d="M256.351 449.512C260.292 449.512 263.486 446.318 263.486 442.377C263.486 438.437 260.292 435.242 256.351 435.242C252.411 435.242 249.216 438.437 249.216 442.377C249.216 446.318 252.411 449.512 256.351 449.512Z" fill="#2EC4B6"/>
<path d="M279.626 449.512C283.567 449.512 286.761 446.318 286.761 442.377C286.761 438.437 283.567 435.242 279.626 435.242C275.686 435.242 272.491 438.437 272.491 442.377C272.491 446.318 275.686 449.512 279.626 449.512Z" fill="#2EC4B6"/>
<path d="M256.351 520.86C260.292 520.86 263.486 517.666 263.486 513.725C263.486 509.784 260.292 506.59 256.351 506.59C252.411 506.59 249.216 509.784 249.216 513.725C249.216 517.666 252.411 520.86 256.351 520.86Z" fill="#2EC4B6"/>
<path d="M279.626 520.86C283.567 520.86 286.761 517.666 286.761 513.725C286.761 509.784 283.567 506.59 279.626 506.59C275.686 506.59 272.491 509.784 272.491 513.725C272.491 517.666 275.686 520.86 279.626 520.86Z" fill="#2EC4B6"/>
<path d="M767.125 772.829H24.894C23.3051 772.829 22.0181 772.265 22.0181 771.57C22.0181 770.875 23.3051 770.31 24.894 770.31H767.125C768.713 770.31 770.001 770.874 770.001 771.57C770.001 772.266 768.713 772.829 767.125 772.829Z" fill="#3F3D56"/>
<path d="M583.745 506.514C584.253 506.746 584.74 507.018 585.204 507.328L631.571 487.538L633.226 475.324L651.752 475.211L650.658 503.224L589.459 519.409C589.33 519.834 589.176 520.251 588.996 520.658C588.112 522.546 586.689 524.13 584.906 525.212C583.124 526.294 581.062 526.826 578.978 526.739C576.895 526.653 574.884 525.953 573.197 524.728C571.51 523.502 570.223 521.805 569.497 519.851C568.772 517.896 568.64 515.77 569.118 513.741C569.596 511.711 570.664 509.869 572.186 508.444C573.708 507.019 575.618 506.076 577.674 505.732C579.731 505.389 581.843 505.661 583.745 506.514Z" fill="#FFB8B8"/>
<path d="M658.489 760.366H645.815L639.786 711.481L658.491 711.482L658.489 760.366Z" fill="#FFB8B8"/>
<path d="M636.762 756.745H661.204V772.134H621.372C621.372 768.053 622.993 764.138 625.88 761.252C628.766 758.366 632.68 756.745 636.762 756.745Z" fill="#2F2E41"/>
<path d="M707.78 756.785L695.167 758.027L684.374 709.97L702.989 708.136L707.78 756.785Z" fill="#FFB8B8"/>
<path d="M685.804 755.31L710.128 752.914L711.637 768.23L671.997 772.134C671.799 770.123 671.999 768.092 672.585 766.158C673.172 764.225 674.134 762.425 675.416 760.863C676.698 759.301 678.275 758.006 680.058 757.053C681.84 756.101 683.792 755.508 685.804 755.31Z" fill="#2F2E41"/>
<path d="M662.017 423.475C676.04 423.475 687.408 412.108 687.408 398.085C687.408 384.062 676.04 372.694 662.017 372.694C647.995 372.694 636.627 384.062 636.627 398.085C636.627 412.108 647.995 423.475 662.017 423.475Z" fill="#FFB8B8"/>
<path d="M642.983 750.479C641.894 750.482 640.839 750.1 640.004 749.4C639.169 748.701 638.608 747.729 638.419 746.657C631.859 710.242 610.417 591.173 609.904 587.875C609.893 587.799 609.887 587.722 609.888 587.645V578.767C609.887 578.444 609.988 578.129 610.176 577.866L613.009 573.898C613.144 573.708 613.32 573.55 613.525 573.438C613.73 573.326 613.958 573.263 614.191 573.252C630.341 572.495 683.231 570.276 685.786 573.468C688.352 576.677 687.446 586.398 687.238 588.314L687.248 588.514L711.009 740.472C711.195 741.684 710.896 742.921 710.178 743.914C709.459 744.907 708.378 745.578 707.169 745.78L692.328 748.226C691.222 748.403 690.09 748.178 689.137 747.591C688.183 747.005 687.472 746.095 687.133 745.028C682.542 730.361 667.151 681.02 661.816 661.927C661.783 661.806 661.707 661.702 661.602 661.633C661.497 661.564 661.371 661.536 661.247 661.553C661.122 661.571 661.009 661.633 660.927 661.728C660.845 661.823 660.801 661.945 660.803 662.071C661.069 680.271 661.713 726.705 661.935 742.743L661.96 744.47C661.97 745.639 661.54 746.77 660.757 747.638C659.974 748.507 658.893 749.049 657.729 749.159L643.418 750.46C643.272 750.473 643.127 750.479 642.983 750.479Z" fill="#2F2E41"/>
<path d="M645.903 433.459C641.472 436.093 638.82 440.933 637.299 445.859C634.482 454.978 632.786 464.406 632.25 473.935L630.642 502.468L610.736 578.108C627.989 592.706 637.94 589.388 661.164 577.448C684.388 565.508 687.042 581.429 687.042 581.429L691.686 517.068L698.321 446.739C696.831 444.945 695.146 443.325 693.295 441.907C687.162 437.138 680.027 433.823 672.427 432.212C664.827 430.601 656.96 430.737 649.42 432.608L645.903 433.459Z" fill="#2EC4B6"/>
<path d="M639.439 521.79C639.974 521.992 640.493 522.235 640.99 522.518L686.836 499.571L687.597 487.14L706.508 485.836L707.522 514.174L646.255 534.435C645.754 536.581 644.613 538.524 642.981 540.005C641.35 541.486 639.307 542.435 637.123 542.727C634.939 543.018 632.718 542.638 630.756 541.636C628.793 540.635 627.182 539.059 626.137 537.12C625.091 535.18 624.661 532.969 624.903 530.779C625.145 528.589 626.049 526.525 627.493 524.861C628.937 523.196 630.853 522.011 632.987 521.463C635.121 520.915 637.371 521.029 639.439 521.79Z" fill="#FFB8B8"/>
<path d="M697.989 447.061C709.269 451.042 711.256 494.173 711.256 494.173C697.986 486.874 682.061 498.818 682.061 498.818C682.061 498.818 678.744 487.538 674.762 472.94C673.56 468.835 673.416 464.491 674.344 460.315C675.273 456.138 677.242 452.264 680.07 449.054C680.07 449.054 686.709 443.077 697.989 447.061Z" fill="#2EC4B6"/>
<path d="M684.784 404.799C681.62 402.268 677.304 406.869 677.304 406.869L674.773 384.091C674.773 384.091 658.955 385.986 648.832 383.459C638.709 380.932 637.127 392.634 637.127 392.634C636.605 387.907 636.5 383.143 636.811 378.398C637.443 372.703 645.669 367.009 660.221 363.212C674.773 359.416 682.365 375.867 682.365 375.867C692.49 380.928 687.947 407.33 684.784 404.799Z" fill="#2F2E41"/>
</g>
<defs>
<clipPath id="clip0">
<rect width="770" height="772.304" fill="white" transform="translate(0 0.524414)"/>
</clipPath>
</defs>
</svg>
