<svg width="345" height="321" viewBox="0 0 345 321" fill="none" xmlns="http://www.w3.org/2000/svg">
<g clip-path="url(#clip0)">
<path d="M50.5247 296.443C117.89 328.551 227.112 328.552 294.477 296.444C361.842 264.336 361.842 212.279 294.477 180.172C227.111 148.063 117.889 148.063 50.5239 180.171C-16.8414 212.278 -16.8414 264.336 50.5247 296.443Z" fill="#F2F3F1"/>
<path d="M278.362 269.58C287.134 273.761 301.358 273.761 310.131 269.58C318.904 265.399 318.904 258.62 310.131 254.437C301.358 250.257 287.134 250.257 278.362 254.437C269.588 258.62 269.588 265.399 278.362 269.58Z" fill="#E7E7E5"/>
<path d="M45.3618 263.545L53.3044 258.959C53.3044 258.959 59.8569 254.144 63.1014 245.202C65.5567 238.437 65.2179 233.29 63.4574 230.711C61.2917 227.536 55.6889 228.091 55.4663 234.783C55.0283 247.962 51.183 257.08 45.3618 263.545Z" fill="#2EC4B6"/>
<path d="M45.3618 263.545C51.183 257.08 55.0283 247.962 55.4663 234.783C55.6046 230.628 57.8161 228.84 59.9921 228.84C61.3207 228.84 62.6364 229.507 63.4574 230.711C64.3342 231.995 64.8586 233.917 64.8605 236.359C64.8624 238.819 64.3339 241.807 63.1014 245.202C59.8569 254.144 53.3044 258.959 53.3044 258.959L45.3618 263.545Z" fill="#13AF96"/>
<path d="M45.3629 264.034C45.2074 264.034 45.0554 263.961 44.9604 263.823C44.8069 263.601 44.8622 263.297 45.084 263.144C63.4607 250.427 59.9007 232.711 59.8629 232.533C59.806 232.271 59.974 232.009 60.2375 231.953C60.5033 231.894 60.7615 232.064 60.8184 232.327C60.8581 232.511 64.572 250.847 45.6405 263.947C45.5558 264.006 45.4587 264.034 45.3629 264.034Z" fill="white"/>
<path d="M29.4775 272.716C29.4775 272.716 26.7125 270.465 27.3812 267.417C28.0503 264.369 29.8337 262.177 26.7683 258.246C23.7024 254.313 22.9101 249.075 26.5159 246.234C29.3029 244.037 33.6523 247.15 35.2234 241.33C36.3691 237.087 35.978 227.693 41.3909 224.567C46.803 221.442 50.1641 226.147 49.3327 232.518C48.5896 238.219 47.5428 243.709 48.3498 245.202C49.9289 248.124 52.643 247.731 52.5192 253.087C52.4042 258.074 47.6891 262.202 47.6891 262.202L29.4775 272.716Z" fill="#2EC4B6"/>
<path d="M38.5615 267.959C38.3175 267.959 38.1066 267.777 38.0765 267.529C36.6772 255.945 40.0119 235.944 42.7696 229.999C42.8826 229.754 43.1713 229.645 43.4187 229.762C43.6635 229.875 43.7701 230.165 43.6563 230.41C40.9468 236.252 37.7095 256.34 39.0472 267.412C39.0793 267.679 38.8883 267.923 38.6207 267.955L38.5615 267.959Z" fill="white"/>
<path d="M38.2975 258.941L38.0829 258.891C34.691 257.234 32.541 251.342 32.4508 251.092C32.3595 250.839 32.4913 250.559 32.7453 250.467C32.9996 250.376 33.2788 250.507 33.3712 250.763C33.3914 250.819 35.4765 256.529 38.5126 258.014C38.7551 258.132 38.8556 258.424 38.7372 258.668C38.6519 258.841 38.4782 258.941 38.2975 258.941Z" fill="white"/>
<path d="M38.2413 262.845C38.0477 262.845 37.8644 262.728 37.7877 262.538C37.6872 262.287 37.809 262.003 38.0596 261.902C43.768 259.615 47.3269 252.812 47.362 252.744C47.4862 252.504 47.7806 252.408 48.0205 252.534C48.2607 252.657 48.3545 252.952 48.2309 253.192C48.08 253.485 44.4669 260.388 38.4234 262.81L38.2413 262.845Z" fill="white"/>
<path d="M237.809 210.254C237.809 210.254 233.534 203.34 233.121 195.813C232.708 188.285 234.361 185.162 236.627 184.264C238.893 183.368 239.065 186.13 240.236 187.767C241.407 189.405 243.775 188.467 244.649 183.377C245.524 178.287 248.734 169.66 255.373 168.014C262.706 166.198 258.772 174.799 256.932 178.155C255.091 181.511 253.655 186.082 254.87 187.326C256.083 188.571 257.965 186.271 259.77 188.403C261.95 190.976 255.176 200.227 251.287 202.472L237.809 210.254Z" fill="#2EC4B6"/>
<path d="M243.664 207.343L243.639 207.342C243.369 207.328 243.163 207.097 243.176 206.829C244.253 186.81 254.022 172.945 254.122 172.808C254.28 172.588 254.585 172.538 254.804 172.695C255.023 172.852 255.073 173.158 254.916 173.377C254.819 173.512 245.213 187.159 244.152 206.88C244.139 207.14 243.923 207.343 243.664 207.343Z" fill="white"/>
<path d="M244.224 201.571L243.986 201.511C241.249 199.995 239.732 195.499 239.669 195.308C239.585 195.052 239.722 194.776 239.98 194.691C240.235 194.603 240.513 194.745 240.597 195.001C240.611 195.044 242.057 199.326 244.46 200.655C244.696 200.785 244.782 201.082 244.651 201.319C244.562 201.48 244.395 201.571 244.224 201.571Z" fill="white"/>
<path d="M244.703 198.608C244.484 198.608 244.284 198.462 244.229 198.24C244.162 197.977 244.32 197.712 244.582 197.646C251.639 195.861 254.083 192.163 254.107 192.127C254.252 191.9 254.555 191.834 254.781 191.978C255.009 192.123 255.076 192.424 254.932 192.651C254.827 192.816 252.288 196.706 244.823 198.593L244.703 198.608Z" fill="white"/>
<path d="M131.461 195.054C131.461 195.054 122.086 192.769 121.598 175.215C121.071 156.267 123.896 134.163 112.839 132.366C101.783 130.567 95.5786 144.125 95.7206 159.879C95.8451 173.711 101.415 203.725 131.46 209.607L131.461 195.054Z" fill="#2EC4B6"/>
<path d="M131.459 209.607C101.414 203.725 95.8445 173.711 95.72 159.879C95.7181 159.706 95.7173 159.532 95.7173 159.359C95.715 144.77 101.174 132.205 110.898 132.205C111.527 132.205 112.174 132.257 112.838 132.366C120.801 133.66 121.565 145.488 121.566 159.084C121.566 162.31 121.523 165.635 121.523 168.943C121.523 171.051 121.54 173.152 121.598 175.215C122.086 192.769 131.46 195.054 131.46 195.054L131.459 209.607Z" fill="#13AF96"/>
<path d="M131.461 207.802L131.373 207.794C124.611 206.563 119.11 202.844 115.018 196.741C102.872 178.621 106.699 144.799 107.955 138.89C108.011 138.626 108.27 138.459 108.535 138.513C108.799 138.57 108.967 138.829 108.912 139.093C107.669 144.935 103.875 178.36 115.83 196.196C119.769 202.072 125.057 205.65 131.548 206.832C131.814 206.881 131.99 207.136 131.941 207.401C131.898 207.637 131.693 207.802 131.461 207.802Z" fill="white"/>
<path d="M131.462 252.866C121.768 254.18 106.024 254.156 96.9558 247.004C87.8867 239.851 89.7733 233.687 93.2618 231.116C96.7504 228.543 99.7802 225.605 93.7789 219.898C87.7775 214.192 78.1309 205.021 75.0117 191.264C71.8919 177.508 73.4283 168.91 79.5668 166.043C85.524 163.262 87.0924 167.68 90.7387 176.793C94.3842 185.907 102.59 178.094 109.605 180.939C116.62 183.783 116.344 189.415 116.787 194.257C117.229 199.097 119.546 200.435 123.517 200.435C127.49 200.435 131.459 202.728 131.46 207.313L131.462 252.866Z" fill="#2EC4B6"/>
<path d="M131.462 236.895L131.33 236.876C130.911 236.759 120.886 233.842 106.296 220.439C90.7542 206.162 83.4154 184.756 83.3432 184.542C83.2568 184.286 83.3944 184.008 83.6502 183.922C83.9069 183.838 84.1837 183.974 84.2697 184.229C84.341 184.442 91.6046 205.616 106.957 219.72C121.352 232.942 131.493 235.906 131.594 235.936C131.854 236.009 132.005 236.278 131.932 236.539C131.872 236.753 131.676 236.895 131.462 236.895Z" fill="white"/>
<path d="M110.355 223.852C110.159 223.852 109.974 223.734 109.899 223.541C106.762 215.478 106.051 198.243 106.023 197.514C106.012 197.244 106.222 197.017 106.492 197.006C106.742 197.009 106.989 197.205 107 197.476C107.006 197.652 107.733 215.277 110.81 223.186C110.908 223.437 110.783 223.721 110.532 223.818L110.355 223.852Z" fill="white"/>
<path d="M110.274 235.447C108.754 235.447 107.703 235.327 107.576 235.312C107.308 235.281 107.117 235.038 107.149 234.769C107.18 234.502 107.422 234.303 107.692 234.342C107.783 234.35 116.879 235.379 121.057 231.119C121.245 230.925 121.556 230.925 121.748 231.111C121.941 231.3 121.944 231.611 121.755 231.802C118.697 234.92 113.459 235.447 110.274 235.447Z" fill="white"/>
<path d="M85.5059 70.4127C81.0534 73.9126 79.6973 74.6762 78.8919 70.0001C78.087 65.324 80.691 58.1931 85.1435 54.6932C89.596 51.1922 91.3046 50.9312 92.1096 55.6073C92.915 60.2833 89.9584 66.9117 85.5059 70.4127ZM103.234 50.3221L102.184 44.2265L96.7446 47.8057C96.1996 46.7635 95.4996 45.9267 94.6767 45.2951L97.2792 38.2551L92.4335 37.1719L88.8532 43.9929C87.6671 44.1757 86.4148 44.5756 85.124 45.2071L83.5747 40.0657L77.7711 44.6283L78.1511 50.6897C76.9764 51.9958 75.9013 53.4252 74.9425 54.9298L70.1474 54.6932L66.7856 62.2288L70.9032 63.9856C70.4686 65.6066 70.1887 67.2148 70.0901 68.7614L64.8628 73.5685L65.9126 79.6641L71.3511 76.0849C71.8958 77.1271 72.5961 77.964 73.4194 78.5955L70.8164 85.6355L75.6627 86.7188L80.7839 81.7259C81.9704 81.5441 81.6813 79.3151 82.972 78.6835L84.521 83.8249L90.325 79.2623L90.1753 76.8788C91.35 75.5717 95.7857 72.6876 96.7446 71.185L97.9484 69.1975L101.31 61.6618L99.7434 58.8237L98.0061 55.1292L103.234 50.3221Z" fill="#DADAD8"/>
<path d="M92.4332 37.172L98.7733 40.8274L95.1931 47.6494L88.853 43.993L92.4332 37.172Z" fill="#F2F3F1"/>
<path d="M108.523 47.8837L103.085 51.4629L96.7441 47.8065L102.183 44.2274L108.523 47.8837Z" fill="#F2F3F1"/>
<path d="M107.65 65.3174L103.532 63.5615L97.1924 59.9052L101.309 61.662L107.65 65.3174Z" fill="#DADAD8"/>
<path d="M70.8164 85.6356L77.157 89.292L79.7592 82.252L73.4194 78.5956L70.8164 85.6356Z" fill="#DADAD8"/>
<path d="M90.8613 87.4814L84.5207 83.8251L82.9717 78.6837L89.3115 82.34L90.8613 87.4814Z" fill="#DADAD8"/>
<path d="M91.846 74.0689C87.3936 77.5689 83.1308 76.6157 82.3258 71.9396C81.5205 67.2636 84.4774 60.6352 88.9295 57.1343C93.382 53.6343 97.6439 54.5865 98.4495 59.2626C99.2541 63.9396 96.2981 70.568 91.846 74.0689ZM109.573 53.9784L108.523 47.8828L103.084 51.462C102.54 50.4198 101.839 49.5829 101.016 48.9514L103.619 41.9114L98.7731 40.8272L95.1929 47.6492C94.0067 47.832 92.7542 48.2318 91.4634 48.8634L89.9144 43.722L84.1108 48.2846L84.4907 54.345C83.3165 55.6521 82.2415 57.0815 81.2821 58.586L76.4871 58.3495L73.1257 65.8851L77.2429 67.641C76.8079 69.2629 76.5287 70.8701 76.4298 72.4177L71.2021 77.2248L72.2519 83.3194L77.6912 79.7412C78.2358 80.7834 78.9358 81.6202 79.7588 82.2518L77.1566 89.2918L82.002 90.375L85.5823 83.554C86.7683 83.3712 88.0206 82.9704 89.3114 82.3398L90.8611 87.4812L96.6643 82.9186L96.2843 76.8572C97.459 75.5511 98.5346 74.1208 99.4936 72.6171L104.288 72.8537L107.65 65.3171L103.532 63.5613C103.967 61.9403 104.247 60.3321 104.345 58.7855L109.573 53.9784Z" fill="#E7E7E5"/>
<path d="M89.9143 43.7225L83.5741 40.0661L77.7705 44.6288L84.1107 48.2852L89.9143 43.7225Z" fill="#F2F3F1"/>
<path d="M77.7705 44.6289L78.1505 50.6903L84.4906 54.3457L84.1107 48.2853L77.7705 44.6289Z" fill="#DADAD8"/>
<path d="M81.2821 58.5869L74.942 54.9305L70.147 54.6939L76.4871 58.3503L81.2821 58.5869Z" fill="#F2F3F1"/>
<path d="M70.147 54.6937L66.7852 62.2294L73.1257 65.8857L76.4871 58.3501L70.147 54.6937Z" fill="#DADAD8"/>
<path d="M76.4302 72.4185L70.0901 68.7621L64.8628 73.5692L71.2026 77.2256L76.4302 72.4185Z" fill="#F2F3F1"/>
<path d="M72.2524 83.3203L65.9126 79.6649L64.8628 73.5693L71.2026 77.2257L72.2524 83.3203Z" fill="#DADAD8"/>
<path d="M98.7732 40.8279L92.4331 37.1725L97.2789 38.2557L103.619 41.9121L98.7732 40.8279Z" fill="#F2F3F1"/>
<path d="M49.4761 45.4056C43.4274 48.8978 39.6676 46.4214 39.6676 39.4362C39.6676 32.4519 44.6662 23.8956 50.7154 20.4034C56.7642 16.9113 60.4285 19.4522 60.4285 26.4355C60.4285 33.4207 55.5249 41.9135 49.4761 45.4056ZM74.8273 22.6755V13.5707L67.5817 16.837C67.1448 15.1554 66.4795 13.7144 65.6244 12.5246L70.1895 3.32109L64.6143 0.10173L58.9256 8.65805C57.468 8.5114 55.8873 8.65609 54.2127 9.11852L53.4184 1.21038L45.5343 5.76324L44.7399 14.5884C43.0649 16.0588 41.4839 17.7403 40.0266 19.5685L34.3379 17.582L28.7627 27.2381L33.3278 31.1712C32.4732 33.3474 31.8076 35.5579 31.3707 37.7439L24.1255 42.8442V51.948L31.3707 48.6817C31.8076 50.3632 32.4732 51.8043 33.3278 52.9941L28.7627 62.1976L34.3379 65.417L40.0266 56.8607C41.4839 57.0073 43.0649 56.8626 44.7399 56.4002L45.5343 64.3083L53.4184 59.7564L54.2127 50.9313C56.5622 50.1472 59.0762 48.3288 60.5335 46.4996L64.6143 47.9368L70.1895 38.2806L66.7686 35.333C67.6232 33.1568 67.7145 29.6773 67.5817 27.7758L74.8273 22.6755Z" fill="#DADAD8"/>
<path d="M70.955 3.75911L64.6145 0.102736L58.9258 8.65906L65.2656 12.3145L70.955 3.75911Z" fill="#F2F3F1"/>
<path d="M81.1672 17.2268L74.8271 13.5705L67.5815 16.8368L73.9216 20.4932L81.1672 17.2268Z" fill="#F2F3F1"/>
<path d="M51.8747 67.9639L45.5346 64.3085L44.7402 56.4003L51.0803 60.0567L51.8747 67.9639Z" fill="#DADAD8"/>
<path d="M28.7627 62.1981L35.1029 65.8555L39.6676 56.651L33.3278 52.9946L28.7627 62.1981Z" fill="#DADAD8"/>
<path d="M55.816 49.0619C49.7672 52.554 44.8632 49.7228 44.8632 42.7385C44.8632 35.7542 49.7672 27.2615 55.816 23.7693C61.8643 20.2772 66.7678 23.1075 66.7678 30.0917C66.7678 37.077 61.8643 45.5698 55.816 49.0619ZM81.1666 26.3317V17.2269L73.921 20.4932C73.4845 18.8117 72.8185 17.3707 71.9641 16.1809L76.5289 6.97637L70.954 3.75796L65.2647 12.3133C63.8078 12.1676 62.2267 12.3123 60.5521 12.7747L59.7578 4.86759L51.8736 9.41852L51.0793 18.2437C49.4048 19.715 47.8237 21.3966 46.3664 23.2248L40.677 21.2382L35.1022 30.8944L39.6669 34.8274C38.8126 37.0037 38.147 39.2141 37.7104 41.4001L30.4648 46.4995V55.6033L37.7104 52.338C38.147 54.0185 38.8126 55.4606 39.6669 56.6503L35.1022 65.8549L40.677 69.0732L46.3664 60.5179C47.8237 60.6626 49.4048 60.5189 51.0793 60.0565L51.8736 67.9636L59.7578 63.4117L60.5521 54.5866C62.2267 53.1162 63.8078 51.4346 65.2647 49.6064L70.954 51.593L76.5289 41.9368L71.9641 38.0038C72.8185 35.8275 73.4845 33.6171 73.921 31.4311L81.1666 26.3317Z" fill="#E7E7E5"/>
<path d="M40.0271 19.5682L46.3676 23.2246L40.6782 21.238L34.3384 17.5817L40.0271 19.5682Z" fill="#ECEDEB"/>
<path d="M35.1029 30.8945L28.7627 27.2382L34.3379 17.582L40.6777 21.2384L35.1029 30.8945Z" fill="#F2F3F1"/>
<path d="M28.7627 27.2387L35.1029 30.8951L39.6676 34.8281L33.3278 31.1718L28.7627 27.2387Z" fill="#DADAD8"/>
<path d="M31.3707 37.7442L37.7112 41.4006L30.4656 46.5L24.1255 42.8446L31.3707 37.7442Z" fill="#F2F3F1"/>
<path d="M24.1255 42.8443L30.4656 46.4997V55.6035L24.1255 51.9481V42.8443Z" fill="#DADAD8"/>
<path d="M59.7585 4.86802L53.4183 1.21067L45.5342 5.76353L51.8743 9.41895L59.7585 4.86802Z" fill="#F2F3F1"/>
<path d="M141.097 265.949L233.02 212.878C233.955 212.337 233.956 211.461 233.021 210.92L224.516 206C223.582 205.459 222.066 205.458 221.131 205.998L129.184 259.07C128.248 259.61 128.248 260.486 129.184 261.025L137.71 265.949C138.645 266.488 140.162 266.488 141.097 265.949Z" fill="#DADAD8"/>
<path d="M230.478 7.99252L147.606 55.8383C145.269 57.1885 143.373 60.4714 143.373 63.1706V259.745C143.373 262.445 145.269 263.539 147.606 262.189L230.479 214.344C232.817 212.994 234.712 209.71 234.712 207.012L234.711 10.4366C234.711 7.73737 232.816 6.6424 230.478 7.99252Z" fill="#32515C"/>
<path d="M147.606 55.8383L230.478 7.99253C232.569 6.78612 234.301 7.53695 234.646 9.63888C234.328 7.1195 232.591 4.32441 230.478 3.10432L227.032 1.11483C224.693 -0.235291 220.902 -0.235291 218.565 1.11483L135.693 48.9606C134.524 49.6352 133.466 50.7927 132.699 52.1204L144.614 58.998C145.379 57.6714 146.438 56.5139 147.606 55.8383Z" fill="#263D46"/>
<path d="M131.462 252.866C131.462 255.567 133.357 258.85 135.695 260.199L139.142 262.189C141.256 263.409 144.548 263.516 146.889 262.529C144.894 263.286 143.374 262.162 143.374 259.745V63.1708C143.374 61.8207 143.848 60.3249 144.614 58.9982L132.7 52.1205C131.934 53.4472 131.46 54.943 131.46 56.2921L131.462 252.866Z" fill="#17272E"/>
<path d="M149.886 82.0372L228.201 36.8212C229.604 36.0108 230.741 36.6678 230.741 38.2877L230.742 183.746C230.742 185.366 229.604 187.336 228.202 188.146L149.887 233.362C148.484 234.171 147.346 233.514 147.346 231.895V86.4366C147.346 84.8166 148.483 82.8467 149.886 82.0372Z" fill="white"/>
<path d="M189.043 39.3726C188.221 39.8477 187.554 41.0023 187.554 41.9516C187.554 42.9019 188.221 43.2861 189.043 42.8109C189.866 42.3368 190.533 41.1822 190.533 40.2319C190.533 39.2826 189.866 38.8974 189.043 39.3726Z" fill="#263D46"/>
<path d="M189.045 217.737C185.797 219.613 183.166 224.172 183.166 227.922C183.166 231.672 185.797 233.192 189.045 231.317C192.292 229.443 194.925 224.883 194.925 221.133C194.925 217.384 192.292 215.863 189.045 217.737Z" fill="#263D46"/>
<path d="M174.978 54.5038C173.333 55.454 172 57.7632 172 59.6628C172 61.5623 173.333 62.3317 174.979 61.3825C176.623 60.4332 177.956 58.123 177.956 56.2234C177.956 54.3239 176.622 53.5545 174.978 54.5038Z" fill="#263D46"/>
<path d="M182.26 53.8597C182.26 55.1257 183.207 55.6057 184.376 54.9302L203.971 43.6179C205.139 42.9433 206.088 41.3693 206.088 40.1033C206.087 38.8372 205.139 38.3572 203.97 39.0327L184.376 50.345C183.207 51.0196 182.26 52.5936 182.26 53.8597Z" fill="#263D46"/>
<path d="M138.052 88.331C139.367 89.0907 140.435 90.9384 140.435 92.4586C140.435 93.9779 139.367 94.5938 138.052 93.8332C136.736 93.0736 135.669 91.2268 135.669 89.7066C135.669 88.1873 136.736 87.5714 138.052 88.331Z" fill="#263D46"/>
<path d="M138.052 106.687C139.367 107.448 140.435 109.295 140.435 110.815C140.435 112.334 139.367 112.95 138.052 112.19C136.736 111.431 135.669 109.583 135.669 108.064C135.669 106.543 136.736 105.928 138.052 106.687Z" fill="#263D46"/>
<path d="M137.316 88.6989C138.632 89.4585 139.698 91.3072 139.698 92.8265C139.698 94.3457 138.632 94.9616 137.316 94.202C135.999 93.4424 134.933 91.5946 134.933 90.0754C134.933 88.5552 136 87.9392 137.316 88.6989Z" fill="#32515C"/>
<path d="M137.316 107.056C138.632 107.816 139.698 109.664 139.698 111.184C139.698 112.703 138.632 113.319 137.316 112.559C135.999 111.799 134.933 109.951 134.933 108.432C134.933 106.913 136 106.297 137.316 107.056Z" fill="#32515C"/>
<path d="M246.627 42.888C246.627 41.2681 245.49 40.6121 244.086 41.4216L234.713 46.8328L165.771 86.6365C164.368 87.447 163.231 89.416 163.231 91.0359L163.232 236.494C163.232 238.114 164.369 238.77 165.772 237.961L234.737 198.142L244.087 192.746C245.49 191.935 246.628 189.965 246.628 188.346L246.627 42.888Z" fill="white"/>
<path d="M246.627 42.8881H247.116C247.115 42.2341 246.953 41.668 246.618 41.2457C246.286 40.8214 245.767 40.5809 245.221 40.5858C244.772 40.5858 244.307 40.7305 243.842 40.9974L234.468 46.4096L165.527 86.2133C164.727 86.6777 164.048 87.4314 163.552 88.2888C163.058 89.1472 162.744 90.1121 162.742 91.036L162.743 236.494C162.743 237.147 162.904 237.715 163.24 238.137C163.572 238.561 164.091 238.801 164.637 238.797C165.086 238.796 165.551 238.652 166.015 238.384L234.981 198.566L244.331 193.169C245.13 192.705 245.809 191.951 246.306 191.094C246.801 190.235 247.114 189.27 247.117 188.346L247.116 42.8881H246.627H246.138L246.139 188.346C246.141 189.042 245.886 189.872 245.46 190.605C245.037 191.34 244.446 191.976 243.842 192.323L234.492 197.719L165.527 237.537C165.177 237.74 164.871 237.819 164.637 237.819C164.35 237.813 164.166 237.722 164.004 237.527C163.845 237.33 163.721 236.99 163.721 236.494L163.72 91.036C163.718 90.3409 163.973 89.5109 164.398 88.7776C164.821 88.0424 165.412 87.406 166.015 87.0599L234.957 47.2562L244.33 41.845C244.681 41.6416 244.986 41.5624 245.221 41.5634C245.507 41.5683 245.692 41.6602 245.854 41.8548C246.013 42.0522 246.138 42.3924 246.138 42.8881H246.627Z" fill="#2EC4B6"/>
<path d="M164.636 238.797C164.31 238.797 164.004 238.719 163.732 238.561C163.094 238.193 162.743 237.459 162.743 236.494L162.742 91.0352C162.742 89.2334 163.965 87.1139 165.527 86.2125L234.468 46.4088L234.957 47.2555L166.015 87.0592C164.771 87.7777 163.72 89.5981 163.72 91.0352L163.721 236.494C163.721 237.086 163.903 237.531 164.22 237.715C164.538 237.898 165.014 237.832 165.527 237.537L234.492 197.719L234.981 198.565L166.015 238.383C165.538 238.659 165.069 238.797 164.636 238.797Z" fill="#2EC4B6"/>
<path d="M164.636 238.796V238.308C164.389 238.308 164.173 238.251 163.975 238.138H163.976C163.746 238.004 163.57 237.811 163.439 237.54C163.309 237.269 163.232 236.916 163.232 236.493L163.231 91.0347C163.229 90.2437 163.507 89.3336 163.972 88.53C164.436 87.7244 165.085 87.0293 165.771 86.6353L234.289 47.076L165.771 86.6353C165.048 87.0566 164.433 87.7488 163.978 88.5329C163.526 89.3189 163.234 90.1978 163.231 91.0347L163.232 236.493C163.232 236.839 163.284 237.158 163.399 237.442C163.514 237.724 163.701 237.978 163.976 238.138C164.18 238.256 164.41 238.306 164.636 238.305C165.017 238.304 165.396 238.175 165.771 237.96L165.772 237.96L234.314 198.387L234.559 198.809L234.981 198.565L234.737 198.141L165.772 237.958L165.771 237.96C165.353 238.202 164.964 238.309 164.636 238.308V238.796V239.285C165.175 239.285 165.725 239.115 166.261 238.805L235.65 198.743L234.671 197.051L165.283 237.113C165.016 237.267 164.781 237.329 164.636 237.327L164.464 237.291H164.465C164.422 237.267 164.359 237.207 164.304 237.072C164.249 236.939 164.209 236.739 164.21 236.493L164.209 91.0347C164.206 90.4354 164.439 89.6846 164.825 89.0217C165.206 88.3569 165.739 87.7801 166.26 87.4819L235.624 47.4348L234.647 45.7405L165.282 85.7886C164.406 86.296 163.664 87.1114 163.125 88.0411C162.59 88.9728 162.255 90.0228 162.253 91.0347L162.254 236.493C162.254 237.035 162.352 237.532 162.557 237.962C162.761 238.391 163.079 238.749 163.486 238.984H163.487C163.836 239.187 164.232 239.286 164.636 239.285V238.796Z" fill="#3A445D"/>
<path d="M234.982 198.565L234.493 197.72L243.843 192.322C245.087 191.603 246.139 189.782 246.139 188.346L246.138 42.8877C246.138 42.2953 245.956 41.8504 245.639 41.6666C245.323 41.4838 244.845 41.5474 244.331 41.8446L234.957 47.2558L234.468 46.4092L243.842 40.997C244.677 40.516 245.489 40.4514 246.128 40.82C246.764 41.1876 247.116 41.9228 247.116 42.8877L247.117 188.346C247.117 190.148 245.894 192.266 244.332 193.168L234.982 198.565Z" fill="#2EC4B6"/>
<path d="M234.981 198.566L235.405 198.321L235.161 197.899L244.087 192.746C244.811 192.324 245.425 191.631 245.881 190.847C246.333 190.061 246.625 189.183 246.628 188.346L246.627 42.8879C246.626 42.5409 246.575 42.2222 246.46 41.9386C246.344 41.6571 246.157 41.4029 245.883 41.2436C245.679 41.1253 245.448 41.0754 245.222 41.0754C244.842 41.0774 244.462 41.2054 244.086 41.4215L235.136 46.5883L244.086 41.4215C244.506 41.179 244.894 41.0725 245.222 41.0725C245.469 41.0735 245.685 41.1302 245.883 41.2436L245.888 41.2465L245.883 41.2436C246.112 41.3765 246.288 41.5691 246.419 41.8409C246.549 42.1117 246.627 42.4636 246.627 42.8879L246.628 188.346C246.629 189.136 246.352 190.046 245.886 190.85C245.423 191.656 244.773 192.351 244.087 192.745L234.738 198.142L234.981 198.566L235.405 198.321L234.981 198.566L235.226 198.989L244.576 193.591C245.452 193.084 246.194 192.269 246.733 191.339C247.269 190.407 247.604 189.357 247.606 188.346L247.605 42.8879C247.604 42.3463 247.506 41.8487 247.302 41.4195C247.097 40.9904 246.78 40.6315 246.372 40.3969C246.022 40.1945 245.626 40.0939 245.222 40.0948C244.682 40.0948 244.132 40.2659 243.597 40.5739L233.8 46.2305L234.778 47.9247L244.575 42.2681C244.842 42.1127 245.077 42.0521 245.222 42.0531L245.393 42.0902C245.436 42.1146 245.499 42.1743 245.555 42.3092C245.609 42.4421 245.649 42.6416 245.649 42.8879L245.65 188.346C245.652 188.946 245.42 189.696 245.034 190.358C244.652 191.024 244.119 191.601 243.598 191.899L233.825 197.541L234.803 199.233L235.226 198.989L234.981 198.566Z" fill="#3A445D"/>
<path d="M204.929 76.6894C213.702 71.6242 220.813 75.7303 220.813 85.8606C220.813 95.991 213.702 108.309 204.929 113.374C196.156 118.44 189.044 114.333 189.044 104.203C189.044 94.0728 196.156 81.7545 204.929 76.6894Z" fill="#3A445D"/>
<path d="M204.929 84.6614C207.774 83.0179 210.083 84.3505 210.083 87.6363C210.083 90.9232 207.774 94.9198 204.929 96.5632C202.083 98.2056 199.775 96.8741 199.775 93.5872C199.775 90.3004 202.083 86.3048 204.929 84.6614Z" fill="#2EC4B6"/>
<path d="M214.974 102.187C214.974 96.7873 211.183 94.5983 206.508 97.2986L203.584 98.986C198.908 101.685 195.117 108.251 195.117 113.651V115.103C197.82 116.001 201.223 115.515 204.929 113.375C208.741 111.174 212.237 107.603 214.974 103.439V102.187Z" fill="#2EC4B6"/>
<path d="M202.627 97.2666C200.936 97.2666 199.775 95.9194 199.775 93.5877C199.775 90.3009 202.083 86.3052 204.929 84.6618C205.756 84.1838 206.538 83.9579 207.231 83.9579C208.921 83.9579 210.083 85.3061 210.083 87.6368C210.083 90.9237 207.774 94.9202 204.929 96.5637C204.101 97.0407 203.319 97.2666 202.627 97.2666Z" fill="#5E6D94"/>
<path d="M197.863 115.531C196.888 115.531 195.968 115.386 195.117 115.103V113.65C195.117 108.251 198.908 101.685 203.584 98.9856L206.508 97.2982C207.866 96.5132 209.15 96.1417 210.288 96.1417C213.066 96.1417 214.974 98.356 214.974 102.186V103.439C212.237 107.603 208.741 111.174 204.929 113.375C202.389 114.841 199.991 115.531 197.863 115.531Z" fill="#5E6D94"/>
<path d="M174.193 135.714L194.634 123.913C195.569 123.373 196.327 123.811 196.327 124.891V125.566C196.327 126.646 195.569 127.959 194.634 128.498L174.193 140.3C173.259 140.84 172.5 140.402 172.5 139.322V138.647C172.5 137.567 173.259 136.254 174.193 135.714Z" fill="#2EC4B6"/>
<path d="M173.437 140.531C172.881 140.531 172.5 140.088 172.5 139.322V138.647C172.5 137.567 173.259 136.254 174.193 135.714L194.634 123.913C194.906 123.756 195.163 123.682 195.391 123.682C195.946 123.682 196.327 124.124 196.327 124.891V125.566C196.327 126.646 195.569 127.959 194.634 128.498L174.193 140.3C173.921 140.457 173.664 140.531 173.437 140.531Z" fill="#5E6D94"/>
<path d="M173.347 149.96L235.192 114.254C235.661 113.984 236.039 114.203 236.039 114.743V121.958C236.039 122.498 235.661 123.155 235.192 123.425L173.347 159.131C172.879 159.401 172.5 159.183 172.5 158.644V151.427C172.5 150.887 172.879 150.231 173.347 149.96Z" fill="#2EC4B6"/>
<path d="M172.968 159.248C172.691 159.248 172.5 159.026 172.5 158.644V151.427C172.5 150.887 172.879 150.231 173.347 149.96L235.192 114.254C235.328 114.176 235.457 114.139 235.571 114.139C235.849 114.139 236.039 114.36 236.039 114.743V121.959C236.039 122.498 235.661 123.155 235.192 123.425L234.749 123.681C233.591 122.2 232.743 121.221 231.976 121.221C231.763 121.221 231.555 121.297 231.349 121.458C230.623 122.029 231.151 123.266 232.339 125.074L173.347 159.132C173.211 159.211 173.083 159.248 172.968 159.248Z" fill="#A8A8A8"/>
<path d="M174.193 167.813L194.634 156.012C195.569 155.471 196.327 155.909 196.327 156.99V157.664C196.327 158.744 195.569 160.057 194.634 160.597L174.193 172.398C173.259 172.939 172.5 172.501 172.5 171.421V170.746C172.5 169.666 173.259 168.354 174.193 167.813Z" fill="#2EC4B6"/>
<path d="M173.437 172.63C172.881 172.63 172.5 172.187 172.5 171.421V170.746C172.5 169.666 173.259 168.354 174.193 167.813L194.634 156.012C194.906 155.855 195.163 155.78 195.391 155.78C195.946 155.78 196.327 156.223 196.327 156.99V157.664C196.327 158.743 195.569 160.057 194.634 160.597L174.193 172.398C173.921 172.556 173.664 172.63 173.437 172.63Z" fill="#5E6D94"/>
<path d="M173.347 182.059L235.192 146.352C235.661 146.083 236.039 146.301 236.039 146.841V154.057C236.039 154.597 235.661 155.254 235.192 155.524L173.347 191.23C172.879 191.5 172.5 191.282 172.5 190.741V183.525C172.5 182.986 172.879 182.329 173.347 182.059Z" fill="#2EC4B6"/>
<path d="M172.968 191.346C172.691 191.346 172.5 191.125 172.5 190.742V183.526C172.5 182.986 172.879 182.329 173.347 182.059L235.192 146.353C235.328 146.274 235.457 146.237 235.571 146.237C235.848 146.237 236.039 146.458 236.039 146.842V154.057C236.039 154.597 235.661 155.254 235.192 155.524L173.347 191.23C173.211 191.309 173.083 191.346 172.968 191.346Z" fill="#A8A8A8"/>
<path d="M198.021 186.156L222.433 172.062C223.369 171.521 224.126 171.959 224.126 173.04V180.592C224.126 181.672 223.369 182.985 222.433 183.525L198.021 197.619C197.086 198.159 196.327 197.722 196.327 196.642V189.088C196.327 188.008 197.086 186.695 198.021 186.156Z" fill="#2EC4B6"/>
<path d="M197.265 197.851C196.709 197.851 196.327 197.409 196.327 196.642V189.089C196.327 188.009 197.086 186.696 198.021 186.156L222.433 172.062C222.705 171.905 222.961 171.831 223.189 171.831C223.745 171.831 224.126 172.274 224.126 173.04V180.592C224.126 181.673 223.369 182.986 222.433 183.525L198.021 197.62C197.75 197.776 197.492 197.851 197.265 197.851Z" fill="#5E6D94"/>
<path d="M255.896 154.304C255.896 154.304 243.886 137.737 243.154 135.765C242.6 134.279 243.192 132.069 243.329 131.041C243.465 130.015 243.664 127.727 243.835 127.091C244.134 125.98 242.694 126.208 241.887 127.218C241.059 128.252 240.795 130.271 240.383 130.603C239.972 130.936 236.763 126.273 235.088 124.116C233.414 121.958 232.367 120.658 231.35 121.458C230.616 122.034 231.162 123.291 232.375 125.129C233.589 126.966 234.127 127.817 234.31 128.211C234.493 128.606 233.494 128.637 232.956 129.466C232.535 130.114 232.927 131.162 232.371 131.66C231.813 132.161 231.294 133.059 231.905 134.071C232.683 135.362 234.244 137.204 236.039 138.449C237.835 139.693 238.564 140.13 239.622 141.823C240.682 143.515 250.251 160.793 250.894 161.829C251.535 162.866 252.782 164.978 254.67 165.038C256.559 165.098 272.002 151.801 272.798 151.138C275.343 149.015 276.146 148.703 276.585 150.616C276.723 151.214 276.813 151.896 276.909 152.667C277.215 155.087 278.863 163.751 278.863 163.751C278.863 163.751 286.674 167.537 293.106 165.67C299.538 163.805 301.695 161.118 301.695 161.118L298.477 155.874C299.353 153.71 303.399 144.956 304.669 138.821L284.529 135.57C284.116 135.48 283.456 135.315 282.613 135.093C281.507 134.801 278.728 133.825 276.584 135.689C269.654 141.717 255.896 154.304 255.896 154.304Z" fill="#F6879B"/>
<path d="M295.824 255.919L292.213 260.936C292.213 260.936 293.885 261.917 297.457 262.052C300.688 262.175 301.576 261.114 301.696 260.86C302.24 259.69 301.39 257.579 301.156 255.766L295.824 255.919Z" fill="#263D46"/>
<path d="M292.417 258.527C292.417 258.527 288.042 258.248 285.016 257.867C281.99 257.485 279.597 258.962 280.31 260.208C281.021 261.453 282.684 262.489 285.277 263.36C287.498 264.108 290.16 264.651 292.479 265.346C294.856 266.056 296.377 266.87 297.724 266.407C299.224 265.89 299.869 265.291 299.741 264.198C299.614 263.105 298.526 259.585 298.526 259.585L292.417 258.527Z" fill="#263D46"/>
<path d="M301.696 250.877C301.696 250.877 301.148 255.434 301.106 256.413C301.064 257.391 296.659 257.704 295.824 255.918L295.687 250.347L301.696 250.877Z" fill="#F47084"/>
<path d="M297.253 253.682L298.829 260.595C298.829 260.595 298.977 261.439 295.376 261.974C291.774 262.512 286.128 260.092 285.166 259.6C284.205 259.107 284.091 258.128 287.627 258.324C291.163 258.52 292.417 258.527 292.417 258.527L291.269 255.462L297.253 253.682Z" fill="#F6879B"/>
<path d="M304.669 138.821L307.158 138.134C307.158 138.134 312.373 154.624 312.949 156.212C313.526 157.8 314.176 159.494 313.055 161.459C311.718 163.797 304.669 173.213 304.669 173.213L300.194 168.834L305.27 159.533L300.779 150.435L304.669 138.821Z" fill="#F47084"/>
<path d="M279.036 117.388C279.036 117.388 277.04 114.193 279.142 110.281C281.62 105.671 287.16 103.422 293.752 104.285C296.797 104.684 300.392 107.183 302.363 111.001C304.529 115.193 304.732 123.643 305.27 126.838L279.036 117.388Z" fill="#263D46"/>
<path d="M278.887 119.191C278.887 119.191 277.321 122.174 277.592 122.445C277.863 122.716 278.907 122.936 278.907 122.936L278.887 119.191Z" fill="#F6879B"/>
<path d="M283.639 109.764C281.936 110.875 279.004 112.905 278.875 119.606C278.743 126.485 279.715 128.702 280.732 129.499C281.418 130.037 285.433 129.765 287.158 129.359C288.882 128.954 293.84 126.505 295.624 122.782C297.722 118.4 297.298 111.984 294.174 110.123C289.78 107.501 285.081 108.825 283.639 109.764Z" fill="#F6879B"/>
<path d="M301.694 161.119C304.709 165.811 307.575 169.943 308.186 175.215C309.477 186.351 305.241 199.081 304.343 207.314C304.343 207.314 307.188 211.013 307.185 215.359C307.183 218.762 301.695 250.878 301.695 250.878C301.695 250.878 297.704 252.094 295.687 250.347L291.915 191.264L293.902 184.072L301.694 161.119Z" fill="#2EC4B6"/>
<path d="M298.815 251.289C298.149 251.289 297.449 251.211 296.814 250.986C296.41 248.528 295.77 244.656 295.057 240.489L291.915 191.266L293.49 215.938L293.752 194.778L296.793 185.532C302.63 183.502 304.668 179.801 304.668 179.801C299.41 182.74 293.902 184.071 293.902 184.071C302.529 181.506 305.35 177.821 306.344 172.579C306.42 172.173 306.457 171.767 306.457 171.359C306.457 169.837 305.964 168.317 305.274 166.886C306.726 169.501 307.833 172.168 308.186 175.215C308.355 176.673 308.429 178.157 308.429 179.654C308.426 189.605 305.123 200.157 304.343 207.314C304.343 207.314 307.188 211.012 307.185 215.359C307.183 218.761 301.695 250.877 301.695 250.877C301.695 250.877 300.343 251.289 298.815 251.289ZM302.222 161.938C302.029 161.648 301.851 161.374 301.694 161.118C301.87 161.393 302.047 161.666 302.222 161.938Z" fill="#13AF96"/>
<path d="M291.915 191.264L293.902 184.071C293.902 184.071 299.41 182.74 304.668 179.801C304.668 179.801 302.63 183.502 296.793 185.532L293.752 194.778L293.49 215.938L291.915 191.264Z" fill="#2EC4B6"/>
<path d="M293.49 215.938L291.915 191.266L293.902 184.071C293.902 184.071 299.41 182.74 304.668 179.801C304.668 179.801 302.63 183.502 296.793 185.532L293.752 194.778L293.49 215.938Z" fill="#09A189"/>
<path d="M301.694 161.119C303.307 163.751 307.162 168.253 306.344 172.579C305.349 177.822 302.529 181.506 293.901 184.072L285.809 213.376C285.809 213.376 290.023 217.32 291.311 221.07C292.598 224.82 297.252 253.682 297.252 253.682C297.252 253.682 295.813 256.031 291.268 255.462C291.268 255.462 275.421 219.266 274.3 216.935C273.182 214.604 272.456 212.862 272.959 209.066C273.463 205.271 278.862 163.751 278.862 163.751L301.694 161.119Z" fill="#2EC4B6"/>
<path d="M292.635 255.551C292.214 255.551 291.76 255.523 291.269 255.462C291.269 255.462 275.421 219.266 274.301 216.935C273.429 215.118 272.796 213.66 272.797 211.308C272.797 210.642 272.849 209.904 272.96 209.066C273.464 205.271 278.863 163.751 278.863 163.751C278.863 163.751 283.892 166.187 289.2 166.187C290.509 166.187 291.834 166.04 293.106 165.67C299.538 163.805 301.695 161.118 301.695 161.118C303.156 163.504 306.46 167.425 306.457 171.359C306.457 171.767 306.42 172.174 306.344 172.579C305.35 177.821 302.529 181.506 293.902 184.071L291.915 191.266L285.81 213.376C285.81 213.376 290.023 217.32 291.312 221.07C292.599 224.82 297.253 253.681 297.253 253.681C297.253 253.681 296.108 255.551 292.635 255.551Z" fill="#13AF96"/>
<path d="M304.669 138.821L284.529 135.57C284.117 135.48 283.452 135.313 282.61 135.092L282.608 135.091C282.608 135.091 281.75 147.718 276.585 150.616H276.584C276.706 151.218 276.813 151.895 276.909 152.667C277.215 155.087 278.863 163.751 278.863 163.751C278.863 163.751 286.674 167.537 293.106 165.67C299.538 163.805 301.695 161.118 301.695 161.118L298.477 155.874C299.353 153.71 303.399 144.956 304.669 138.821Z" fill="#2EC4B6"/>
<path d="M300.779 150.435C302.232 146.896 303.925 142.41 304.668 138.821C303.925 142.41 302.232 146.896 300.779 150.435Z" fill="#FBCAD2"/>
<path d="M289.2 166.188C283.892 166.188 278.863 163.751 278.863 163.751C278.863 163.751 277.215 155.087 276.909 152.667C276.813 151.895 276.706 151.218 276.584 150.616H276.585C281.75 147.718 282.608 135.091 282.608 135.091L282.61 135.092C283.452 135.313 284.117 135.48 284.529 135.57L304.669 138.821C303.926 142.41 302.232 146.897 300.78 150.435C299.75 152.944 298.841 154.976 298.477 155.874L301.695 161.118C301.695 161.118 299.538 163.805 293.106 165.67C291.834 166.04 290.51 166.188 289.2 166.188Z" fill="#9CDDD1"/>
<path d="M299.355 153.813C299.273 154.002 292.881 157.427 290.982 157.951C293.976 157.804 296.464 157.1 298.477 155.875L299.355 153.813Z" fill="#2EC4B6"/>
<path d="M283.137 110.103C283.137 110.103 282.198 116.46 284.472 120.189C284.472 120.189 285.326 117.658 287.476 118.142C289.64 118.629 289.73 121.44 288.227 123.033C286.724 124.627 285.051 124.051 285.051 124.051C285.051 124.051 284.714 128.646 284.532 132.498C284.357 136.211 283.322 144.747 287.656 148.178C291.992 151.611 302.858 152.769 307.95 145.65C310.784 141.689 307.02 134.689 305.27 126.838C303.659 119.62 302.754 108.924 295.095 107.208C287.437 105.492 283.137 110.103 283.137 110.103Z" fill="#263D46"/>
<path d="M311.231 23.2725L309.616 24.2052C309.745 23.6108 309.837 23.0213 309.837 22.4533C309.837 19.1821 307.54 17.8574 304.708 19.493C303.884 19.9681 303.118 20.6554 302.427 21.4522L302.428 21.4287C302.428 17.0254 299.338 15.2403 295.524 17.4419C291.711 19.6436 288.62 24.9971 288.62 29.4004C288.62 29.6253 288.633 29.8374 288.649 30.0476C287.843 29.9039 286.88 30.1023 285.845 30.6997C283.011 32.3353 280.716 36.3114 280.716 39.5826C280.716 40.0332 280.764 40.4419 280.846 40.8163L279.986 41.312C277.647 42.6621 275.752 45.2959 275.752 47.1954C275.752 49.095 277.647 49.5398 279.986 48.1907L311.231 30.1512C313.569 28.8011 315.464 26.1673 315.464 24.2678C315.464 22.3682 313.569 21.9224 311.231 23.2725Z" fill="#E7E7E5"/>
</g>
<defs>
<clipPath id="clip0">
<rect width="345" height="320.422" fill="white" transform="translate(0 0.102539)"/>
</clipPath>
</defs>
</svg>
