<svg width="15" height="22" viewBox="0 0 15 22" fill="none" xmlns="http://www.w3.org/2000/svg">
<path d="M0.296 20.584C0.594667 18.088 0.744 14.7067 0.744 10.44C0.744 6.152 0.562667 2.984 0.2 0.935999C1.88533 0.338666 3.85867 0.039999 6.12 0.039999C8.40267 0.039999 10.0773 0.551999 11.144 1.576C12.2107 2.6 12.744 4.104 12.744 6.088C12.744 8.05067 12.0613 9.544 10.696 10.568C12.9787 11.464 14.12 13.096 14.12 15.464C14.12 19.4747 11.6773 21.48 6.792 21.48C4.21067 21.48 2.04533 21.1813 0.296 20.584ZM5 9.096C5.46933 9.416 6.184 9.576 7.144 9.576C8.12533 9.576 8.84 9.24533 9.288 8.584C9.736 7.90133 9.96 7.00533 9.96 5.896C9.96 4.78667 9.65067 3.83733 9.032 3.048C8.43467 2.25867 7.432 1.864 6.024 1.864C5.23467 1.864 4.36 2.056 3.4 2.44C3.22933 4.168 3.144 6.71733 3.144 10.088C3.144 13.4587 3.22933 16.2747 3.4 18.536C4.63733 19.0267 5.77867 19.272 6.824 19.272C9.832 19.272 11.336 18.0027 11.336 15.464C11.336 13.3093 10.344 12.008 8.36 11.56C7.784 11.6667 7.176 11.72 6.536 11.72C5.896 11.72 5.16 11.56 4.328 11.24C4.328 10.2587 4.552 9.544 5 9.096Z" fill="#2EC4B6"/>
</svg>
