<svg width="7" height="8" viewBox="0 0 7 8" fill="none" xmlns="http://www.w3.org/2000/svg">
<path d="M4.79078 4.199C5.22478 4.297 5.56778 4.514 5.81978 4.85C6.07878 5.179 6.20828 5.557 6.20828 5.984C6.20828 6.614 5.99128 7.1075 5.55728 7.4645C5.12328 7.8215 4.51428 8 3.73028 8H0.0657832V0.5975H3.61478C4.37078 0.5975 4.96228 0.7655 5.38928 1.1015C5.82328 1.4375 6.04028 1.91 6.04028 2.519C6.04028 2.953 5.92478 3.317 5.69378 3.611C5.46978 3.898 5.16878 4.094 4.79078 4.199ZM2.12378 3.5375H3.16328C3.68128 3.5375 3.94028 3.324 3.94028 2.897C3.94028 2.456 3.68128 2.2355 3.16328 2.2355H2.12378V3.5375ZM3.32078 6.341C3.83878 6.341 4.09778 6.124 4.09778 5.69C4.09778 5.466 4.02778 5.2945 3.88778 5.1755C3.75478 5.0565 3.56228 4.997 3.31028 4.997H2.12378V6.341H3.32078Z" fill="#2EC4B6"/>
</svg>
