<svg width="120" height="120" viewBox="0 0 120 120" fill="none" xmlns="http://www.w3.org/2000/svg">
<path d="M45.4531 12.5208C47.917 14.4912 49.5254 17.2376 50.0867 20.2724L43.2989 17.557L41.8628 21.1512L52.2583 25.3105L62.6538 21.1531L61.2176 17.5589L54.0351 20.4312C53.4718 16.146 51.3041 12.2441 47.8725 9.49954C44.8996 7.11696 41.1641 5.80664 37.3531 5.80664H36.7744V9.67761H37.3531C40.2873 9.67761 43.1654 10.686 45.4531 12.5208Z" fill="white"/>
<path d="M74.5473 107.479C72.0834 105.509 70.4751 102.762 69.9138 99.7275L76.7015 102.443L78.1376 98.8488L67.7422 94.6895L57.3467 98.8469L58.7828 102.441L65.9654 99.5688C66.5286 103.854 68.6963 107.756 72.128 110.5C75.1009 112.883 78.8363 114.193 82.6473 114.193H83.226V110.322H82.6473C79.7131 110.322 76.8351 109.314 74.5473 107.479Z" fill="white"/>
<path d="M102.581 85.1613C99.7974 85.1613 97.1748 85.8329 94.8387 87V52.6316L98.8471 62.6535L102.441 61.2174L99.569 54.0348C103.854 53.4716 107.756 51.3039 110.501 47.8723C112.883 44.8994 114.194 41.1639 114.194 37.3529V36.7742H110.323V37.3529C110.323 40.289 109.314 43.1652 107.479 45.4548C105.509 47.9187 102.763 49.5271 99.7277 50.0884L102.443 43.3006L98.849 41.8645L94.8387 51.8845V33C97.1748 34.1652 99.7974 34.8387 102.581 34.8387C112.186 34.8387 120 27.0252 120 17.4194C120 7.81355 112.186 0 102.581 0C92.9748 0 85.1613 7.81355 85.1613 17.4194C85.1613 24.1626 89.0187 30.0097 94.6355 32.9032H25.3645C30.9813 30.0097 34.8387 24.1626 34.8387 17.4194C34.8387 7.81355 27.0252 0 17.4194 0C7.81355 0 0 7.81355 0 17.4194C0 27.0252 7.81355 34.8387 17.4194 34.8387C20.2026 34.8387 22.8252 34.1671 25.1613 33V67.3684L21.1529 57.3465L17.5587 58.7826L20.431 65.9652C16.1458 66.5284 12.2439 68.6961 9.49935 72.1277C7.11677 75.1006 5.80645 78.8361 5.80645 82.6471V83.2258H9.67742V82.6471C9.67742 79.711 10.6858 76.8348 12.5206 74.5452C14.491 72.0813 17.2374 70.4729 20.2723 69.9116L17.5568 76.6993L21.151 78.1355L25.1613 68.1155V87C22.8252 85.8329 20.2026 85.1613 17.4194 85.1613C7.81355 85.1613 0 92.9748 0 102.581C0 112.186 7.81355 120 17.4194 120C27.0252 120 34.8387 112.186 34.8387 102.581C34.8387 95.8374 30.9813 89.9903 25.3645 87.0968H94.6374C89.0187 89.9903 85.1613 95.8374 85.1613 102.581C85.1613 112.186 92.9748 120 102.581 120C112.186 120 120 112.186 120 102.581C120 92.9748 112.186 85.1613 102.581 85.1613ZM23.2258 29.6419C21.4626 30.4819 19.4981 30.9677 17.4194 30.9677C15.3406 30.9677 13.3761 30.4819 11.6129 29.6419V27.0968C11.6129 23.8955 14.2181 21.2903 17.4194 21.2903C20.6206 21.2903 23.2258 23.8955 23.2258 27.0968V29.6419ZM13.5484 13.5484C13.5484 11.4135 15.2845 9.67742 17.4194 9.67742C19.5542 9.67742 21.2903 11.4135 21.2903 13.5484C21.2903 15.6832 19.5542 17.4194 17.4194 17.4194C15.2845 17.4194 13.5484 15.6832 13.5484 13.5484ZM23.2258 114.803C21.4626 115.643 19.4981 116.129 17.4194 116.129C15.3406 116.129 13.3761 115.643 11.6129 114.803V112.258C11.6129 109.057 14.2181 106.452 17.4194 106.452C20.6206 106.452 23.2258 109.057 23.2258 112.258V114.803ZM13.5484 98.7097C13.5484 96.5748 15.2845 94.8387 17.4194 94.8387C19.5542 94.8387 21.2903 96.5748 21.2903 98.7097C21.2903 100.845 19.5542 102.581 17.4194 102.581C15.2845 102.581 13.5484 100.845 13.5484 98.7097ZM30.9677 102.581C30.9677 106.272 29.4794 109.618 27.0774 112.065C27.0116 108.811 25.349 105.941 22.8271 104.235C24.2632 102.83 25.1613 100.875 25.1613 98.7097C25.1613 94.44 21.689 90.9677 17.4194 90.9677C13.1497 90.9677 9.67742 94.44 9.67742 98.7097C9.67742 100.875 10.5755 102.83 12.0116 104.235C9.48968 105.943 7.8271 108.811 7.76129 112.065C5.35935 109.618 3.87097 106.272 3.87097 102.581C3.87097 95.1116 9.95032 89.0323 17.4194 89.0323C24.8884 89.0323 30.9677 95.1116 30.9677 102.581ZM22.8271 19.0742C24.2632 17.669 25.1613 15.7142 25.1613 13.5484C25.1613 9.27871 21.689 5.80645 17.4194 5.80645C13.1497 5.80645 9.67742 9.27871 9.67742 13.5484C9.67742 15.7142 10.5755 17.669 12.0116 19.0742C9.48968 20.7813 7.8271 23.6497 7.76129 26.9032C5.35935 24.4568 3.87097 21.1103 3.87097 17.4194C3.87097 9.95032 9.95032 3.87097 17.4194 3.87097C24.8884 3.87097 30.9677 9.95032 30.9677 17.4194C30.9677 21.1103 29.4794 24.4568 27.0774 26.9032C27.0116 23.6497 25.349 20.7794 22.8271 19.0742ZM90.9677 83.2258H29.0323V52.2581H90.9677V83.2258ZM90.9677 48.3871H29.0323V36.7742H90.9677V48.3871ZM108.387 29.6419C106.624 30.4819 104.659 30.9677 102.581 30.9677C100.502 30.9677 98.5374 30.4819 96.7742 29.6419V27.0968C96.7742 23.8955 99.3793 21.2903 102.581 21.2903C105.782 21.2903 108.387 23.8955 108.387 27.0968V29.6419ZM98.7097 13.5484C98.7097 11.4135 100.446 9.67742 102.581 9.67742C104.715 9.67742 106.452 11.4135 106.452 13.5484C106.452 15.6832 104.715 17.4194 102.581 17.4194C100.446 17.4194 98.7097 15.6832 98.7097 13.5484ZM92.9226 26.9032C90.5206 24.4568 89.0323 21.1103 89.0323 17.4194C89.0323 9.95032 95.1116 3.87097 102.581 3.87097C110.05 3.87097 116.129 9.95032 116.129 17.4194C116.129 21.1103 114.641 24.4568 112.239 26.9032C112.173 23.6497 110.51 20.7794 107.988 19.0742C109.425 17.669 110.323 15.7142 110.323 13.5484C110.323 9.27871 106.85 5.80645 102.581 5.80645C98.311 5.80645 94.8387 9.27871 94.8387 13.5484C94.8387 15.7142 95.7368 17.669 97.1729 19.0742C94.649 20.7813 92.9864 23.6497 92.9226 26.9032ZM108.387 114.803C106.624 115.643 104.659 116.129 102.581 116.129C100.502 116.129 98.5374 115.643 96.7742 114.803V112.258C96.7742 109.057 99.3793 106.452 102.581 106.452C105.782 106.452 108.387 109.057 108.387 112.258V114.803ZM98.7097 98.7097C98.7097 96.5748 100.446 94.8387 102.581 94.8387C104.715 94.8387 106.452 96.5748 106.452 98.7097C106.452 100.845 104.715 102.581 102.581 102.581C100.446 102.581 98.7097 100.845 98.7097 98.7097ZM112.239 112.065C112.173 108.811 110.51 105.941 107.988 104.235C109.425 102.83 110.323 100.875 110.323 98.7097C110.323 94.44 106.85 90.9677 102.581 90.9677C98.311 90.9677 94.8387 94.44 94.8387 98.7097C94.8387 100.875 95.7368 102.83 97.1729 104.235C94.649 105.943 92.9864 108.811 92.9226 112.065C90.5206 109.618 89.0323 106.272 89.0323 102.581C89.0323 95.1116 95.1116 89.0323 102.581 89.0323C110.05 89.0323 116.129 95.1116 116.129 102.581C116.129 106.272 114.641 109.618 112.239 112.065Z" fill="white"/>
<path d="M36.7743 40.6455H32.9033V44.5165H36.7743V40.6455Z" fill="white"/>
<path d="M44.516 40.6455H40.645V44.5165H44.516V40.6455Z" fill="white"/>
<path d="M52.2582 40.6455H48.3872V44.5165H52.2582V40.6455Z" fill="white"/>
<path d="M63.8711 56.1289H32.9033V79.3547H63.8711V56.1289ZM60.0001 75.4837H36.7743V59.9999H60.0001V75.4837Z" fill="white"/>
<path d="M87.0965 56.1289H67.7417V59.9999H87.0965V56.1289Z" fill="white"/>
<path d="M87.0965 63.8711H67.7417V67.7421H87.0965V63.8711Z" fill="white"/>
<path d="M87.0965 71.6133H67.7417V75.4842H87.0965V71.6133Z" fill="white"/>
</svg>
