<svg width="101" height="84" viewBox="0 0 101 84" fill="none" xmlns="http://www.w3.org/2000/svg">
<path d="M45 42.75V47.125C45 48.1562 44.1562 49 43.125 49H16.875C15.8438 49 15 48.1562 15 47.125V42.75C15 41.7188 15.8438 40.875 16.875 40.875H43.125C44.1562 40.875 45 41.7188 45 42.75ZM43.125 54H16.875C15.8438 54 15 54.8438 15 55.875V60.25C15 61.2812 15.8438 62.125 16.875 62.125H43.125C44.1562 62.125 45 61.2812 45 60.25V55.875C45 54.8438 44.1562 54 43.125 54ZM60 24.6094V76.5C60 80.6406 56.6406 84 52.5 84H7.5C3.35938 84 0 80.6406 0 76.5V11.5C0 7.35938 3.35938 4 7.5 4H39.3906C41.375 4 43.2812 4.79688 44.6875 6.20312L57.7969 19.3125C59.2031 20.7031 60 22.625 60 24.6094ZM40 12.1094V24H51.8906L40 12.1094ZM52.5 76.5V31.5H36.25C34.1719 31.5 32.5 29.8281 32.5 27.75V11.5H7.5V76.5H52.5Z" fill="white"/>
<path d="M97.282 46.712H87.538V56.68H78.466V46.712H68.722V38.144H78.466V28.12H87.538V38.144H97.282V46.712Z" fill="white"/>
</svg>
