<svg width="120" height="96" viewBox="0 0 120 96" fill="none" xmlns="http://www.w3.org/2000/svg">
<g clip-path="url(#clip0)">
<path d="M42 48C55.2563 48 66 37.2562 66 24C66 10.7438 55.2563 0 42 0C28.7438 0 18 10.7438 18 24C18 37.2562 28.7438 48 42 48ZM58.8 54H55.6688C51.5063 55.9125 46.875 57 42 57C37.125 57 32.5125 55.9125 28.3313 54H25.2C11.2875 54 0 65.2875 0 79.2V87C0 91.9688 4.03125 96 9 96H75C79.9688 96 84 91.9688 84 87V79.2C84 65.2875 72.7125 54 58.8 54ZM119.363 29.925L114.15 24.6562C113.288 23.775 111.881 23.775 111 24.6375L91.35 44.1375L82.8188 35.55C81.9563 34.6688 80.55 34.6688 79.6688 35.5312L74.4 40.7625C73.5188 41.625 73.5188 43.0312 74.3813 43.9125L89.7 59.3438C90.5625 60.225 91.9688 60.225 92.85 59.3625L119.344 33.075C120.206 32.1937 120.225 30.7875 119.363 29.925Z" fill="white"/>
</g>
<defs>
<clipPath id="clip0">
<rect width="120" height="96" fill="white"/>
</clipPath>
</defs>
</svg>
