<svg width="512" height="513" viewBox="0 0 512 513" fill="none" xmlns="http://www.w3.org/2000/svg">
<g clip-path="url(#clip0)">
<path d="M113.47 309.979L95.648 376.511L30.509 377.889C11.042 341.782 0 300.471 0 256.571C0 214.12 10.324 174.088 28.624 138.839H28.638L86.63 149.471L112.034 207.115C106.717 222.616 103.819 239.256 103.819 256.571C103.821 275.363 107.225 293.368 113.47 309.979Z" fill="#FBBB00"/>
<path d="M507.527 208.747C510.467 224.233 512 240.226 512 256.571C512 274.899 510.073 292.777 506.402 310.022C493.94 368.705 461.377 419.947 416.268 456.209L416.254 456.195L343.21 452.468L332.872 387.933C362.804 370.379 386.196 342.908 398.518 310.022H261.628V208.747H400.515H507.527Z" fill="#518EF8"/>
<path d="M416.253 456.195L416.267 456.209C372.396 491.472 316.666 512.571 256 512.571C158.509 512.571 73.7478 458.08 30.5088 377.89L113.47 309.98C135.089 367.678 190.748 408.751 256 408.751C284.047 408.751 310.323 401.169 332.87 387.933L416.253 456.195Z" fill="#28B446"/>
<path d="M419.404 59.5073L336.471 127.403C313.136 112.817 285.552 104.391 256 104.391C189.271 104.391 132.571 147.348 112.035 207.115L28.638 138.839H28.624C71.23 56.6943 157.06 0.571289 256 0.571289C318.115 0.571289 375.068 22.6973 419.404 59.5073Z" fill="#F14336"/>
</g>
<defs>
<clipPath id="clip0">
<rect width="512" height="512" fill="white" transform="translate(0 0.571289)"/>
</clipPath>
</defs>
</svg>
