<svg width="512" height="586" viewBox="0 0 512 586" fill="none" xmlns="http://www.w3.org/2000/svg">
<path d="M0 36.5625V548.563H512V36.5625H0ZM425.371 157.82L397.943 184.105C395.543 185.934 394.4 188.905 394.857 191.763V385.248C394.4 388.22 395.543 391.191 397.943 392.905L424.8 419.191V425.02H289.943V419.42L317.714 392.448C320.457 389.705 320.457 388.905 320.457 384.791V228.334L243.2 424.448H232.8L142.857 228.334V359.763C142.057 365.248 144 370.848 147.886 374.848L184 418.62V424.448H81.3714V418.62L117.486 374.848C121.371 370.848 123.086 365.248 122.171 359.763V207.763C122.629 203.534 121.029 199.42 117.829 196.563L85.7143 157.82V151.991H185.486L262.514 321.134L330.286 152.105H425.371V157.82Z" fill="black"/>
</svg>
